<svg width="22" height="24" viewBox="0 0 22 24" fill="none" xmlns="http://www.w3.org/2000/svg">
<g opacity="0.6">
<path d="M21.126 17.7063L19.6608 15.5984C19.4608 15.3119 19.3531 14.9711 19.3523 14.6216V8.57221C19.3523 6.29969 18.4496 4.12025 16.8426 2.51333C15.2357 0.906418 13.0563 0.00366211 10.7838 0.00366211C8.51124 0.00366211 6.3318 0.906418 4.72488 2.51333C3.11797 4.12025 2.21521 6.29969 2.21521 8.57221V14.6216C2.21439 14.9711 2.10675 15.3119 1.90675 15.5984L0.441524 17.7063C0.219667 17.9521 0.0737764 18.2569 0.0214956 18.5839C-0.0307852 18.9109 0.0127825 19.246 0.14693 19.5487C0.281078 19.8515 0.50006 20.1089 0.777395 20.2898C1.05473 20.4707 1.37854 20.5674 1.70967 20.5682H6.58518C6.78184 21.5367 7.30727 22.4074 8.07245 23.0328C8.83764 23.6582 9.79551 23.9999 10.7838 23.9999C11.772 23.9999 12.7299 23.6582 13.4951 23.0328C14.2603 22.4074 14.7857 21.5367 14.9824 20.5682H19.8579C20.189 20.5674 20.5128 20.4707 20.7901 20.2898C21.0675 20.1089 21.2865 19.8515 21.4206 19.5487C21.5547 19.246 21.5983 18.9109 21.546 18.5839C21.4938 18.2569 21.3479 17.9521 21.126 17.7063ZM10.7838 22.2819C10.2534 22.2804 9.73652 22.1149 9.30392 21.8081C8.87133 21.5013 8.54422 21.0682 8.36743 20.5682H13.2001C13.0233 21.0682 12.6962 21.5013 12.2636 21.8081C11.831 22.1149 11.3141 22.2804 10.7838 22.2819ZM1.70967 18.8545C1.7484 18.8185 1.7829 18.7783 1.81249 18.7345L3.31199 16.5752C3.71201 16.0022 3.92727 15.3205 3.92892 14.6216V8.57221C3.92892 6.7542 4.65113 5.01064 5.93666 3.72511C7.22219 2.43958 8.96575 1.71737 10.7838 1.71737C12.6018 1.71737 14.3453 2.43958 15.6309 3.72511C16.9164 5.01064 17.6386 6.7542 17.6386 8.57221V14.6216C17.6403 15.3205 17.8555 16.0022 18.2555 16.5752L19.755 18.7345C19.7846 18.7783 19.8191 18.8185 19.8579 18.8545H1.70967Z" fill="black"/>
</g>
</svg>
