<svg width="1024" height="1024" viewBox="0 0 1024 1024" fill="none" xmlns="http://www.w3.org/2000/svg">
<rect width="1024" height="1024" fill="white"/>
<g clip-path="url(#clip0_52_539)">
<path d="M242.863 581.303C248.175 597.931 253.378 614.221 258.581 630.494C217.177 646.811 151.811 638.853 111.283 586.529C70.7827 534.241 75.9308 457.485 122.985 412.132C172.678 364.229 248.193 360.876 300.131 404.146C352.352 447.663 359.18 517.841 333.056 566.164C327.597 549.078 322.285 532.459 316.699 514.972C307.744 526.676 299.228 537.813 290.757 548.886C288.594 548.384 287.526 546.822 285.727 545.57C297.703 522.628 299.483 498.919 289.598 474.881C283.199 459.312 272.674 446.859 258.289 437.951C228.313 419.386 188.78 422.812 163.331 445.589C135.463 470.541 129.366 509.106 143.222 539.22C151.839 557.941 165.795 571.426 184.754 579.512C203.685 587.589 223.028 588 242.863 581.303Z" fill="#039D65"/>
<path d="M428.735 470.751C432.842 465.763 435.809 461.386 439.825 457.96C452.44 447.197 467.282 443.698 483.475 444.118C521.1 445.087 546.796 469.856 555.933 507.032C562.833 535.1 561.519 562.847 550.885 589.9C537.366 624.308 501.558 643.787 465.183 636.926C447.365 633.563 433.637 624.957 425.759 608.128C425.522 607.616 425.111 607.177 423.778 606.73C423.778 609.937 423.924 613.153 423.751 616.35C422.747 635.062 409.265 639.712 395.555 637.885C384.501 636.414 378.066 628.986 377.536 617.803C377.418 615.217 377.335 612.632 377.335 610.037C377.326 541.057 377.326 472.067 377.317 403.086C377.317 395.704 377.746 388.514 382.894 382.465C389.266 374.992 402.154 372.041 413.181 375.759C422.61 378.939 428.525 386.961 428.616 397.678C428.808 419.45 428.707 441.231 428.726 463.004C428.744 465.151 428.735 467.279 428.735 470.751ZM508.276 544.538C508.467 531.856 507.007 521.532 503.566 511.5C497.715 494.442 485.638 485.114 468.615 484.538C451.281 483.954 438.748 492.021 432.112 509.024C424.326 528.987 424.317 549.325 430.423 569.8C435.097 585.469 446.945 596.214 462.882 597.675C479.066 599.165 491.562 592.422 499.75 578.37C506.195 567.333 508.175 555.063 508.276 544.538Z" fill="#039D65"/>
<path d="M853.111 444.027C874.772 444.466 895.802 447.682 914.642 459.285C924.336 465.251 931.885 472.953 930.826 485.699C930.151 493.921 926.29 500.262 918.85 503.789C911.493 507.27 903.99 506.786 897.245 502.016C892.79 498.873 888.628 495.301 884.502 491.729C875.118 483.615 863.919 481.742 852.107 482.291C846.676 482.546 841.217 483.149 836.106 485.424C830.793 487.791 826.914 491.126 826.576 497.485C826.211 504.246 829.826 508.302 835.448 510.97C842.924 514.515 851.094 515.73 859.044 517.621C876.743 521.833 894.561 525.461 911.128 533.555C952.058 553.555 944.71 600.919 918.613 620.398C902.53 632.403 884.219 637.538 864.567 638.095C840.35 638.789 817.047 634.815 795.915 622.07C787.591 617.045 780.471 610.722 776.765 601.394C774.446 595.556 774.09 589.471 776.19 583.523C780.617 570.978 795.267 566.374 807.088 573.655C812.72 577.127 816.937 582.189 821.547 586.794C836.17 601.394 853.567 605.003 873.129 599.868C877.601 598.689 881.517 596.332 884.593 592.778C890.654 585.78 889.103 575.465 881.079 570.86C873.74 566.639 865.361 565.405 857.31 563.295C841.619 559.174 825.59 556.305 810.356 550.522C792.748 543.834 779.54 532.998 775.825 513.391C770.905 487.425 782.598 464.813 806.659 453.529C821.373 446.613 836.927 443.844 853.111 444.027Z" fill="#039D65"/>
<path d="M678.758 482.738C672.15 482.199 666.189 483.076 660.375 481.295C652.771 478.965 649.403 474.113 649.503 465.059C649.595 456.425 653.054 451.638 660.858 449.737C663.642 449.061 666.536 448.732 669.402 448.54C672.268 448.339 675.162 448.495 677.873 448.495C679.279 446.996 678.713 445.397 678.722 443.954C678.804 434.214 678.603 424.457 678.877 414.726C679.269 400.903 688.498 391.894 702.327 391.419C717.233 390.917 726.087 396.718 729.4 409.089C730.24 412.232 730.112 415.43 730.13 418.609C730.185 428.331 730.149 438.052 730.149 447.727C732.549 449.089 734.868 448.44 737.068 448.476C744.05 448.595 751.061 448.084 757.907 450.03C765.41 452.168 769.189 457.366 769.198 465.635C769.207 473.721 765.246 478.965 757.761 481.085C752.713 482.51 747.574 482.62 742.398 482.546C738.482 482.501 734.557 482.537 730.915 482.537C729.765 484.438 730.158 486 730.158 487.48C730.13 519.001 730.139 550.513 730.149 582.034C730.149 594.523 733.553 597.867 746.205 597.904C747.729 597.904 749.244 597.913 750.769 597.959C761.266 598.278 766.724 602.161 768.696 610.667C770.795 619.722 766.733 628.465 758.454 632.933C753.27 635.729 747.674 637.008 741.915 637.647C729.081 639.064 716.384 638.388 704.107 634.157C688.297 628.712 678.968 614.907 678.868 596.241C678.676 560.307 678.777 524.373 678.758 488.439C678.758 486.64 678.758 484.84 678.758 482.738Z" fill="#039D65"/>
<path d="M582.933 541.075C582.933 518.078 582.933 495.082 582.933 472.085C582.933 467.206 583.189 462.355 584.969 457.732C588.136 449.463 594.507 445.471 602.978 444.493C608.437 443.863 613.904 443.817 619.235 445.461C626.829 447.8 631.585 452.807 633.438 460.601C634.287 464.182 634.67 467.791 634.661 471.464C634.652 517.612 634.661 563.752 634.661 609.9C634.661 610.357 634.67 610.814 634.661 611.27C634.488 620.544 633.201 629.635 624.137 634.523C613.831 640.078 602.923 639.913 592.727 634.194C585.799 630.311 583.609 623.139 583.143 615.546C582.897 611.444 582.961 607.323 582.951 603.212C582.933 582.5 582.942 561.787 582.933 541.075Z" fill="#039D65"/>
<path d="M313.842 532.541C326.447 572.084 338.752 610.713 351.065 649.342C350.691 649.561 350.326 649.772 349.952 649.991C329.825 634.623 309.697 619.265 289.415 603.788C281.72 612.376 275.942 622.49 267.216 631.27C254.528 591.417 242.242 552.833 229.563 512.989C235.067 517.092 239.714 520.472 244.268 523.962C258.91 535.154 273.615 546.264 288.064 557.694C291.405 560.335 292.939 559.686 295.166 556.625C300.496 549.298 306.101 542.171 311.614 534.981C312.071 534.405 312.609 533.894 313.842 532.541Z" fill="#F58E20"/>
<path d="M609.313 373.009C624.146 373.347 635.866 385.435 635.528 400.035C635.172 415.393 623.196 426.732 607.734 426.348C593.029 425.982 581.719 413.913 582.02 398.911C582.322 384.22 594.489 372.671 609.313 373.009Z" fill="#039D65"/>
</g>
<defs>
<clipPath id="clip0_52_539">
<rect width="856" height="277" fill="white" transform="translate(84 373)"/>
</clipPath>
</defs>
</svg>
