<svg width="206" height="67" viewBox="0 0 206 67" fill="none" xmlns="http://www.w3.org/2000/svg">
<path d="M38.2309 50.3837C39.5094 54.4057 40.7615 58.346 42.0136 62.2818C32.0495 66.2287 16.3191 64.3039 6.56583 51.6477C-3.18083 39.0004 -1.9419 20.435 9.38197 9.46501C21.3407 -2.12154 39.5138 -2.93257 52.0129 7.53355C64.5801 18.0593 66.2232 35.0337 59.9363 46.7219C58.6227 42.5893 57.3442 38.5695 55.9998 34.3397C53.8449 37.1706 51.7954 39.8645 49.7569 42.5429C49.2363 42.4214 48.9793 42.0435 48.5465 41.7407C51.4286 36.1916 51.8569 30.4569 49.4779 24.6427C47.938 20.877 45.4053 17.8649 41.9433 15.7102C34.7294 11.2197 25.2156 12.0484 19.0913 17.5577C12.3848 23.593 10.9174 32.921 14.252 40.2048C16.3257 44.7329 19.6844 47.9948 24.2469 49.9505C28.8028 51.9041 33.4576 52.0035 38.2309 50.3837Z" fill="#039D65"/>
<path d="M82.9619 23.6438C83.9504 22.4372 84.6643 21.3786 85.6309 20.5499C88.6667 17.9466 92.2385 17.1002 96.1354 17.2019C105.19 17.4361 111.374 23.4272 113.573 32.4193C115.233 39.2082 114.917 45.9197 112.358 52.4632C109.105 60.7857 100.487 65.4972 91.7332 63.8376C87.4453 63.0243 84.1415 60.9426 82.2458 56.872C82.1887 56.7482 82.0898 56.6421 81.7691 56.5338C81.7691 57.3095 81.8042 58.0874 81.7625 58.8609C81.5209 63.3868 78.2764 64.5116 74.977 64.0696C72.3168 63.7138 70.7681 61.9172 70.6407 59.2122C70.6122 58.5868 70.5924 57.9614 70.5924 57.3338C70.5902 40.649 70.5902 23.962 70.588 7.27719C70.588 5.49159 70.6913 3.75239 71.9302 2.28943C73.4635 0.481724 76.5652 -0.232076 79.2188 0.667357C81.4879 1.43641 82.9114 3.3767 82.9333 5.96893C82.9795 11.2351 82.9553 16.5036 82.9597 21.7698C82.9641 22.2891 82.9619 22.804 82.9619 23.6438ZM102.104 41.491C102.15 38.4236 101.798 35.9264 100.97 33.5C99.5622 29.3741 96.656 27.1178 92.5592 26.9785C88.3877 26.8371 85.3717 28.7884 83.7747 32.9011C81.9009 37.7297 81.8987 42.649 83.3683 47.6014C84.493 51.3914 87.3443 53.9902 91.1797 54.3438C95.0744 54.704 98.0816 53.0731 100.052 49.6743C101.603 47.0047 102.08 44.0368 102.104 41.491Z" fill="#039D65"/>
<path d="M185.09 17.1798C190.303 17.2859 195.364 18.0638 199.898 20.8704C202.23 22.3135 204.047 24.1764 203.792 27.2592C203.63 29.2481 202.701 30.7818 200.91 31.6348C199.14 32.4768 197.334 32.3597 195.711 31.2061C194.639 30.4459 193.637 29.5818 192.644 28.7178C190.386 26.7554 187.691 26.3023 184.848 26.4349C183.541 26.4968 182.228 26.6427 180.997 27.1929C179.719 27.7653 178.785 28.5719 178.704 30.11C178.616 31.7453 179.486 32.7265 180.839 33.3718C182.638 34.2293 184.604 34.5232 186.518 34.9806C190.777 35.9994 195.065 36.8768 199.052 38.8347C208.902 43.6722 207.133 55.1284 200.853 59.8399C196.983 62.7437 192.576 63.9857 187.847 64.1205C182.019 64.2885 176.411 63.3271 171.325 60.2443C169.322 59.0289 167.609 57.4996 166.717 55.2433C166.159 53.8312 166.073 52.3594 166.578 50.9207C167.644 47.8865 171.169 46.7727 174.014 48.534C175.369 49.3738 176.384 50.5981 177.494 51.7119C181.013 55.2433 185.2 56.1162 189.907 54.8742C190.983 54.5892 191.926 54.019 192.666 53.1594C194.125 51.4666 193.751 48.9716 191.82 47.8578C190.054 46.8368 188.038 46.5385 186.1 46.028C182.324 45.0313 178.467 44.3374 174.801 42.9385C170.563 41.3209 167.385 38.6999 166.491 33.9575C165.307 27.6769 168.12 22.2074 173.911 19.4781C177.452 17.8052 181.195 17.1356 185.09 17.1798Z" fill="#039D65"/>
<path d="M143.131 26.5432C141.541 26.4128 140.106 26.6249 138.707 26.194C136.877 25.6305 136.067 24.457 136.091 22.267C136.113 20.1786 136.945 19.0206 138.823 18.561C139.493 18.3975 140.19 18.3179 140.879 18.2715C141.569 18.2229 142.266 18.2604 142.918 18.2604C143.256 17.898 143.12 17.5113 143.122 17.1621C143.142 14.8064 143.094 12.4462 143.16 10.0926C143.254 6.74902 145.475 4.57005 148.803 4.45514C152.39 4.33359 154.521 5.73689 155.318 8.7291C155.52 9.48931 155.49 10.2628 155.494 11.0318C155.507 13.3832 155.498 15.7345 155.498 18.0748C156.076 18.4041 156.634 18.2472 157.163 18.256C158.844 18.2847 160.531 18.161 162.178 18.6317C163.984 19.1488 164.894 20.4063 164.896 22.4062C164.898 24.362 163.945 25.6305 162.143 26.1432C160.929 26.4879 159.692 26.5144 158.446 26.4968C157.504 26.4857 156.559 26.4946 155.683 26.4946C155.406 26.9542 155.501 27.3321 155.501 27.6901C155.494 35.3143 155.496 42.9363 155.498 50.5605C155.498 53.5814 156.318 54.3902 159.362 54.3991C159.729 54.3991 160.094 54.4013 160.461 54.4123C162.987 54.4897 164.3 55.4289 164.775 57.4863C165.28 59.6763 164.303 61.7912 162.31 62.8719C161.063 63.5481 159.716 63.8575 158.33 64.0122C155.241 64.3547 152.186 64.1912 149.231 63.168C145.427 61.8509 143.182 58.5117 143.157 53.9969C143.111 45.3053 143.135 36.6137 143.131 27.9222C143.131 27.4868 143.131 27.0515 143.131 26.5432Z" fill="#039D65"/>
<path d="M120.07 40.6535C120.07 35.0911 120.07 29.5288 120.07 23.9665C120.07 22.7864 120.132 21.6129 120.56 20.4947C121.322 18.4947 122.856 17.529 124.894 17.2925C126.208 17.1401 127.524 17.129 128.807 17.5268C130.634 18.0925 131.779 19.3035 132.225 21.1886C132.429 22.0549 132.521 22.9278 132.519 23.8162C132.517 34.9784 132.519 46.1385 132.519 57.3007C132.519 57.4112 132.521 57.5217 132.519 57.6322C132.477 59.8753 132.167 62.0741 129.986 63.2564C127.506 64.6 124.881 64.5603 122.427 63.1769C120.76 62.2376 120.233 60.5029 120.121 58.6664C120.062 57.6742 120.077 56.6775 120.075 55.6831C120.07 50.6732 120.073 45.6633 120.07 40.6535Z" fill="#039D65"/>
<path d="M55.3123 38.5894C58.3459 48.1539 61.307 57.4974 64.2704 66.8409C64.1803 66.8939 64.0924 66.9448 64.0024 66.9978C59.1587 63.2807 54.315 59.5659 49.434 55.8223C47.5822 57.8996 46.1917 60.346 44.0917 62.4697C41.0383 52.8301 38.0816 43.4976 35.0304 33.8602C36.355 34.8525 37.4731 35.6701 38.5692 36.5143C42.0927 39.2215 45.6316 41.9087 49.1089 44.6733C49.9129 45.312 50.2819 45.1551 50.8179 44.4148C52.1008 42.6424 53.4495 40.9187 54.7763 39.1795C54.8862 39.0403 55.0158 38.9165 55.3123 38.5894Z" fill="#F58E20"/>
<path d="M126.419 0.00217744C129.988 0.083944 132.809 3.00765 132.728 6.53909C132.642 10.2539 129.76 12.9964 126.039 12.9036C122.5 12.8152 119.778 9.89594 119.851 6.26727C119.923 2.71374 122.851 -0.0795892 126.419 0.00217744Z" fill="#039D65"/>
</svg>
