<svg width="40" height="22" viewBox="0 0 40 22" fill="none" xmlns="http://www.w3.org/2000/svg">
<path d="M3.63623 3.72729H27.2726V18.2728H3.63623V3.72729Z" fill="#32BF7A"/>
<path d="M38.1818 7.36372V3.72739C38.1818 1.71911 36.5537 0.0910645 34.5455 0.0910645H3.63633C1.62805 0.0909863 0 1.71903 0 3.72731V18.2728C0 20.2811 1.62805 21.9091 3.63633 21.9091H34.5454C36.5537 21.9091 38.1817 20.2811 38.1817 18.2728V14.6365C39.1859 14.6365 39.9999 13.8224 39.9999 12.8183V9.18192C40 8.1777 39.1859 7.36372 38.1818 7.36372ZM36.3637 9.18185V18.2728C36.3637 19.2769 35.5496 20.091 34.5455 20.091H3.63633C2.63219 20.091 1.81813 19.2769 1.81813 18.2728V3.72731C1.81813 2.72317 2.63219 1.90911 3.63633 1.90911H34.5454C35.5495 1.90911 36.3636 2.72317 36.3636 3.72731L36.3637 9.18185Z" fill="#32BF7A"/>
</svg>
