<svg width="18" height="24" viewBox="0 0 18 24" fill="none" xmlns="http://www.w3.org/2000/svg">
<path fill-rule="evenodd" clip-rule="evenodd" d="M16.8357 0.75H1.1644C0.96312 0.750372 0.770186 0.830496 0.627856 0.972826C0.485526 1.11516 0.405401 1.30809 0.405029 1.50938V22.4883C0.405085 22.6368 0.448665 22.782 0.530382 22.9061C0.612098 23.0301 0.728368 23.1274 0.864817 23.1861C1.00127 23.2447 1.15191 23.2621 1.29813 23.2361C1.44435 23.21 1.57973 23.1417 1.68753 23.0395L9.00003 16.1095L16.3125 23.0395C16.4204 23.1415 16.5557 23.2097 16.7018 23.2357C16.848 23.2616 16.9985 23.2442 17.1349 23.1856C17.2712 23.127 17.3874 23.0297 17.4691 22.9058C17.5508 22.7818 17.5944 22.6367 17.5946 22.4883V1.50938C17.5942 1.30817 17.5141 1.11531 17.3719 0.972991C17.2297 0.830675 17.0369 0.750496 16.8357 0.75ZM14.3611 7.89094L11.4619 9.98859C11.4143 10.0221 11.3789 10.0702 11.3609 10.1255C11.3429 10.1808 11.3433 10.2405 11.3621 10.2956L12.4744 13.6973C12.4921 13.7524 12.492 13.8116 12.474 13.8665C12.4561 13.9215 12.4212 13.9693 12.3744 14.0033C12.3276 14.0372 12.2713 14.0555 12.2135 14.0556C12.1557 14.0556 12.0993 14.0373 12.0525 14.0034L9.16128 11.8941C9.11468 11.8594 9.05813 11.8406 9.00003 11.8406C8.94193 11.8406 8.88538 11.8594 8.83878 11.8941L5.94753 14.0034C5.90071 14.0373 5.84437 14.0556 5.78657 14.0556C5.72876 14.0555 5.67244 14.0372 5.62565 14.0033C5.57886 13.9693 5.544 13.9215 5.52604 13.8665C5.50808 13.8116 5.50795 13.7524 5.52565 13.6973L6.638 10.2956C6.6567 10.2406 6.65713 10.1809 6.63923 10.1256C6.62132 10.0703 6.58604 10.0222 6.53862 9.98859L3.6394 7.89094C3.59264 7.8569 3.55783 7.80895 3.53996 7.75394C3.52209 7.69893 3.52207 7.63967 3.53991 7.58465C3.55775 7.52963 3.59253 7.48166 3.63927 7.44759C3.68602 7.41353 3.74234 7.39512 3.80019 7.395L7.37909 7.40203C7.43693 7.40274 7.49347 7.38492 7.54045 7.35118C7.58743 7.31745 7.62238 7.26956 7.64019 7.21453L8.7394 3.80906C8.75738 3.75411 8.79226 3.70625 8.83907 3.67232C8.88588 3.63838 8.94221 3.62011 9.00003 3.62011C9.05784 3.62011 9.11418 3.63838 9.16099 3.67232C9.20779 3.70625 9.24268 3.75411 9.26065 3.80906L10.3594 7.21219C10.3772 7.26729 10.4123 7.31524 10.4593 7.34898C10.5064 7.38272 10.5631 7.4005 10.621 7.39969L14.1994 7.39266C14.258 7.39187 14.3152 7.40985 14.3628 7.44396C14.4104 7.47806 14.4458 7.52651 14.4639 7.5822C14.482 7.63789 14.4817 7.69791 14.4633 7.75346C14.4448 7.80901 14.409 7.85719 14.3611 7.89094Z" fill="#FBB35E"/>
</svg>
