<svg width="64" height="64" viewBox="0 0 24 24" fill="none"
     xmlns="http://www.w3.org/2000/svg">
  <path fill-rule="evenodd" clip-rule="evenodd"
        d="M12 2C8.13401 2 5 5.13401 5 9C5 11.5771 6.43552 13.8215 8.5 15V17C8.5 17.8284 9.17157 18.5 10 18.5H14C14.8284 18.5 15.5 17.8284 15.5 17V15C17.5645 13.8215 19 11.5771 19 9C19 5.13401 15.866 2 12 2ZM9 21H15V22C15 22.5523 14.5523 23 14 23H10C9.44772 23 9 22.5523 9 22V21Z"
        fill="#FFFFFF"/>
  <circle cx="12" cy="2" r="1" fill="#FFFFFF"/>
  <line x1="4" y1="9" x2="2" y2="9" stroke="#FFFFFF" stroke-width="2"/>
  <line x1="22" y1="9" x2="20" y2="9" stroke="#FFFFFF" stroke-width="2"/>
  <line x1="6.2" y1="4.2" x2="4.8" y2="2.8" stroke="#FFFFFF" stroke-width="2"/>
  <line x1="17.8" y1="4.2" x2="19.2" y2="2.8" stroke="#FFFFFF" stroke-width="2"/>
</svg>
