<svg width="18" height="24" viewBox="0 0 18 24" fill="none" xmlns="http://www.w3.org/2000/svg">
<path d="M15.0227 2.51456C11.803 -0.741097 6.47287 -0.905143 3.07261 2.43113C-0.258958 5.69991 -0.244417 10.8452 2.68828 14.1195C3.57199 15.1061 4.05867 16.3589 4.05867 17.6471V19.1765C4.05867 20.0747 4.65382 20.8363 5.47043 21.0881V21.9059C5.47043 23.0606 6.28525 24 7.28689 24H10.7128C11.7144 24 12.5293 23.0606 12.5293 21.9059V21.0881C13.3458 20.8363 13.941 20.0747 13.941 19.1765V17.6471C13.941 16.3589 14.4278 15.1061 15.3115 14.1194C18.258 10.8296 18.2153 5.74278 15.0227 2.51456ZM10.7128 22.5883H7.28685C7.0997 22.5883 6.88214 22.2902 6.88214 21.9059V21.1765H11.1174V21.9059C11.1175 22.2902 10.8999 22.5883 10.7128 22.5883ZM12.5292 19.1765C12.5292 19.5009 12.2654 19.7648 11.941 19.7648H6.05866C5.73429 19.7648 5.47043 19.5009 5.47043 19.1765V18.353H12.5292V19.1765ZM14.2598 13.1775C13.3052 14.2433 12.7178 15.5589 12.5679 16.9412H5.4318C5.28177 15.5589 4.69448 14.2433 3.7399 13.1775C2.56729 11.8684 1.92852 10.1782 1.94122 8.41825C1.96927 4.54895 5.15777 1.36774 9.08491 1.41231C12.9303 1.45758 16.0586 4.62392 16.0586 8.47058C16.0586 10.2108 15.4198 11.8824 14.2598 13.1775Z" fill="white"/>
</svg>
