<svg width="20" height="20" viewBox="0 0 20 20" fill="none" xmlns="http://www.w3.org/2000/svg">
<path fill-rule="evenodd" clip-rule="evenodd" d="M5.16357 12.6392C5.16357 11.1815 8.48006 9.99878 12.5726 9.99878C16.6639 9.99878 19.9804 11.1816 19.9804 12.6392V15.0661C19.9804 16.5239 16.6639 17.7066 12.5726 17.7066C8.48006 17.7066 5.16357 16.5238 5.16357 15.0661V12.6392Z" fill="#FE9923"/>
<path fill-rule="evenodd" clip-rule="evenodd" d="M12.5726 9.99878C16.6639 9.99878 19.9804 11.1816 19.9804 12.6392C19.9804 14.0981 16.6639 15.2797 12.5726 15.2797C8.48006 15.2797 5.16357 14.0981 5.16357 12.6392C5.16354 11.1815 8.48006 9.99878 12.5726 9.99878Z" fill="#FECD3D"/>
<path fill-rule="evenodd" clip-rule="evenodd" d="M12.5727 11.2327C15.8279 11.2327 18.4661 11.8633 18.4661 12.6393C18.4661 13.4164 15.8279 14.0458 12.5727 14.0458C9.31756 14.0458 6.67822 13.4164 6.67822 12.6393C6.67822 11.8633 9.31756 11.2327 12.5727 11.2327Z" fill="#FEA832"/>
<path d="M8.82213 16.2308L9.45498 16.2319V17.4612C9.24315 17.4267 9.03215 17.3873 8.82213 17.3431V16.2308ZM17.9774 15.5797V16.8716C18.2058 16.7841 18.4171 16.6921 18.6114 16.5955V15.5786L17.9774 15.5797ZM11.1104 17.6544C11.3194 17.6703 11.5308 17.6817 11.7444 17.6896V16.5148L11.1104 16.516V17.6544ZM6.53271 16.5955C6.72701 16.6921 6.93834 16.7841 7.1667 16.8716V15.5786L6.53271 15.5797V16.5955ZM13.3997 17.6896C13.6109 17.6815 13.8219 17.6697 14.0326 17.6544V16.516L13.3997 16.5148V17.6896ZM15.6892 17.4612C15.901 17.4268 16.112 17.3874 16.322 17.3431V16.2319L15.6892 16.2308V17.4612Z" fill="#C85929"/>
<path d="M2.19467 15.5728V16.3591H2.97979V16.9203H2.19467V17.7066H1.63342V16.9203H0.847168V16.3591H1.63342V15.5728H2.19467ZM16.5582 6.96177V7.74798H17.3444V8.30813H16.5582V9.09435H15.9969V8.30813H15.2119V7.74798H15.9969V6.96177H16.5582ZM2.57189 2.29321V3.07946H3.35701V3.63958H2.57189V4.42583H2.01061V3.63958H1.22439V3.07946H2.01061V2.29321H2.57189Z" fill="#FEA832"/>
<path fill-rule="evenodd" clip-rule="evenodd" d="M0.155347 11.2668C-0.574067 10.0034 1.70738 7.32085 5.25109 5.27574C8.79484 3.22949 12.2579 2.5955 12.9873 3.85777C13.3915 4.55817 13.796 5.25843 14.2007 5.95855C14.9302 7.22199 12.6487 9.90449 9.10499 11.9496C5.56128 13.9959 2.0982 14.631 1.36878 13.3675C0.964292 12.6677 0.559839 11.9667 0.155347 11.2668Z" fill="#FE9923"/>
<path fill-rule="evenodd" clip-rule="evenodd" d="M5.25109 5.27574C8.79484 3.22949 12.2579 2.5955 12.9873 3.85777C13.7167 5.12121 11.4353 7.80371 7.89156 9.84882C4.34898 11.8951 0.884761 12.5291 0.155347 11.2668C-0.574067 10.0034 1.70738 7.32085 5.25109 5.27574Z" fill="#FECD3D"/>
<path fill-rule="evenodd" clip-rule="evenodd" d="M5.86798 6.34357C8.68684 4.71658 11.2875 3.94283 11.6761 4.61544C12.0647 5.28806 10.0934 7.15251 7.27458 8.78068C4.45571 10.4077 1.85614 11.1814 1.46759 10.5088C1.07903 9.83619 3.04911 7.97169 5.86798 6.34357Z" fill="#FEA832"/>
<path d="M7.79278 11.3327L8.38021 12.3495C8.19296 12.4484 8.00394 12.5438 7.81325 12.6358L7.24403 11.6496L7.79278 11.3327ZM2.81177 13.1278L3.31966 14.0072C3.53552 13.9947 3.76505 13.9686 4.00591 13.9299L3.36056 12.8108L2.81177 13.1278ZM5.11935 12.5472L5.67606 13.5107C5.87985 13.444 6.08214 13.3728 6.28278 13.2971L5.6681 12.2314L5.11935 12.5472ZM9.22661 10.5044L9.81403 11.5213C9.99286 11.4088 10.1697 11.2933 10.3446 11.1747L9.7754 10.1896L9.22661 10.5044ZM13.2714 7.08789L12.7226 7.40602L13.3691 8.52402C13.5225 8.33543 13.66 8.14906 13.7793 7.9684L13.2714 7.08789ZM11.0672 9.11371L11.6819 10.1795C11.8482 10.0441 12.0111 9.90466 12.1705 9.76133L11.6149 8.79898L11.0672 9.11371Z" fill="#C85929"/>
</svg>
