<svg width="20" height="20" viewBox="0 0 20 20" fill="none" xmlns="http://www.w3.org/2000/svg">
<path d="M9.99884 0.625977C7.51396 0.629102 5.13175 1.6176 3.37468 3.37468C1.6176 5.13175 0.629102 7.51396 0.625977 9.99884C0.627852 12.4845 1.6158 14.868 3.37301 16.626C5.13022 18.3841 7.51314 19.3733 9.99884 19.3764C12.4853 19.3745 14.8695 18.3859 16.6277 16.6277C18.3859 14.8695 19.3745 12.4853 19.3764 9.99884C19.3733 7.51273 18.3838 5.12945 16.6252 3.37217C14.8666 1.6149 12.4849 0.627226 9.99884 0.625977ZM9.99884 1.87553C11.0666 1.87398 12.1241 2.08306 13.1109 2.49081C14.0978 2.89855 14.9945 3.49695 15.7497 4.25173C16.5049 5.00652 17.1038 5.90286 17.5121 6.88944C17.9205 7.87603 18.1302 8.93346 18.1292 10.0012C18.1295 11.0689 17.9194 12.1261 17.5109 13.1126C17.1024 14.099 16.5035 14.9953 15.7484 15.7501C14.9934 16.505 14.0969 17.1036 13.1104 17.5118C12.1238 17.92 11.0665 18.1298 9.99884 18.1292C8.9311 18.1302 7.87366 17.9205 6.88708 17.5121C5.9005 17.1038 5.00416 16.5049 4.24937 15.7497C3.49459 14.9945 2.89619 14.0978 2.48844 13.1109C2.0807 12.1241 1.87162 11.0666 1.87317 9.99884C1.87193 8.93141 2.08126 7.87422 2.48917 6.88781C2.89708 5.9014 3.49557 5.00514 4.25035 4.25035C5.00514 3.49557 5.9014 2.89708 6.88781 2.48917C7.87422 2.08126 8.93141 1.87193 9.99884 1.87317V1.87553ZM9.99175 5.00297C9.82656 5.00608 9.66929 5.07437 9.55424 5.19295C9.4392 5.31154 9.3757 5.4708 9.3776 5.63601V6.16277C8.36898 6.35173 7.50445 7.00132 7.50445 8.12804C7.50445 8.90754 7.85876 9.54059 8.33118 9.90908C8.80361 10.2776 9.33744 10.4382 9.80514 10.5941C10.2752 10.7523 10.6791 10.9012 10.9082 11.0807C11.1397 11.2578 11.2484 11.4114 11.2484 11.8791C11.2484 12.9184 8.754 12.9184 8.754 11.8791C8.75925 11.7938 8.74698 11.7083 8.71795 11.628C8.68893 11.5476 8.64376 11.4741 8.58523 11.4118C8.5267 11.3496 8.45605 11.3 8.37762 11.2661C8.2992 11.2322 8.21466 11.2147 8.12922 11.2147C8.04378 11.2147 7.95925 11.2322 7.88083 11.2661C7.8024 11.3 7.73175 11.3496 7.67322 11.4118C7.61469 11.4741 7.56952 11.5476 7.54049 11.628C7.51147 11.7083 7.4992 11.7938 7.50445 11.8791C7.50445 13.0034 8.36898 13.6554 9.3776 13.8444V14.3687C9.37235 14.454 9.38462 14.5395 9.41365 14.6198C9.44267 14.7002 9.48784 14.7738 9.54637 14.836C9.6049 14.8982 9.67556 14.9478 9.75398 14.9817C9.83241 15.0156 9.91694 15.0331 10.0024 15.0331C10.0878 15.0331 10.1724 15.0156 10.2508 14.9817C10.3292 14.9478 10.3999 14.8982 10.4584 14.836C10.5169 14.7738 10.5621 14.7002 10.5911 14.6198C10.6201 14.5395 10.6324 14.454 10.6272 14.3687V13.842C11.6358 13.653 12.5003 13.0011 12.5003 11.8767C12.5003 11.0949 12.146 10.4618 11.6736 10.0957C11.2011 9.72719 10.6673 9.56184 10.1996 9.40594C9.72955 9.25005 9.32563 9.10123 9.09415 8.92407C8.86502 8.74455 8.754 8.59338 8.754 8.12568C8.754 7.08399 11.2484 7.08399 11.2484 8.12568C11.2484 8.2917 11.3143 8.45091 11.4317 8.5683C11.5491 8.68569 11.7083 8.75164 11.8744 8.75164C12.0404 8.75164 12.1996 8.68569 12.317 8.5683C12.4344 8.45091 12.5003 8.2917 12.5003 8.12568C12.5003 7.00132 11.6358 6.35173 10.6272 6.1604V5.63365C10.6281 5.54985 10.6122 5.46671 10.5805 5.38916C10.5487 5.31161 10.5017 5.24123 10.4422 5.18219C10.3827 5.12315 10.312 5.07666 10.2342 5.04547C10.1564 5.01428 10.0732 4.99902 9.98939 5.00061L9.99175 5.00297Z" fill="black"/>
</svg>
