<svg width="20" height="20" viewBox="0 0 20 20" fill="none" xmlns="http://www.w3.org/2000/svg">
<path fill-rule="evenodd" clip-rule="evenodd" d="M14.0406 3.35834H16.6617C16.8772 3.35834 17.0522 3.53333 17.0522 3.74885C17.0522 3.96437 16.8772 4.13936 16.6617 4.13936H15.9492L15.2389 17.2874C15.183 18.3233 14.3267 19.1346 13.2893 19.1346H6.70457C5.66715 19.1346 4.81086 18.3233 4.7549 17.2874L4.04469 4.13936H3.33216C3.11663 4.13936 2.94165 3.96437 2.94165 3.74885C2.94165 3.53333 3.11663 3.35834 3.33216 3.35834H5.95321L6.56748 1.83649C6.80588 1.24585 7.37902 0.859131 8.01594 0.859131H11.9779C12.6148 0.859131 13.188 1.24585 13.4264 1.83649L14.0406 3.35834ZM6.21669 4.13936H4.82683L5.53477 17.2454C5.56834 17.8669 6.08212 18.3537 6.70457 18.3537H13.2893C13.9117 18.3537 14.4255 17.8669 14.4591 17.2454L15.167 4.13936H13.7772H6.21669ZM13.1984 3.35834L12.7021 2.12881C12.5829 1.8335 12.2964 1.64013 11.9779 1.64013H8.01594C7.69748 1.64013 7.41091 1.8335 7.29171 2.12881L6.79543 3.35834H13.1984ZM7.30132 6.89089C7.29137 6.6756 7.45809 6.49273 7.67338 6.48279C7.88868 6.47284 8.07155 6.63956 8.08149 6.85486L8.48551 15.6016C8.49546 15.8169 8.32874 15.9997 8.11344 16.0097C7.89815 16.0196 7.71528 15.8529 7.70533 15.6376L7.30132 6.89089ZM11.9124 6.85541C11.9223 6.64011 12.1052 6.4734 12.3205 6.48334C12.5358 6.49328 12.7025 6.67615 12.6925 6.89145L12.2885 15.6382C12.2786 15.8535 12.0957 16.0202 11.8804 16.0102C11.6651 16.0003 11.4984 15.8174 11.5083 15.6021L11.9124 6.85541Z" fill="black"/>
</svg>
