<svg width="24" height="24" viewBox="0 0 24 24" fill="none" xmlns="http://www.w3.org/2000/svg">
<path d="M17.25 23.9981H2.75006C1.23305 23.9981 0 22.7651 0 21.248V6.74811C0 5.23109 1.23305 3.99805 2.75006 3.99805H11.25C11.664 3.99805 12 4.33405 12 4.74805C12 5.16205 11.664 5.49805 11.25 5.49805H2.75006C2.061 5.49805 1.5 6.05909 1.5 6.74811V21.248C1.5 21.9371 2.06105 22.4981 2.75006 22.4981H17.25C17.9391 22.4981 18.5001 21.9371 18.5001 21.248V12.7481C18.5001 12.3341 18.8361 11.9981 19.2501 11.9981C19.6641 11.9981 20.0001 12.3332 20.0001 12.7481V21.248C20.0001 22.7651 18.767 23.9981 17.25 23.9981Z" fill="white"/>
<path d="M8.77208 15.976C8.57507 15.976 8.38298 15.898 8.24198 15.7561C8.06399 15.579 7.98801 15.3239 8.03708 15.079L8.74405 11.543C8.77294 11.3978 8.84425 11.2645 8.94894 11.1599L19.3061 0.804023C20.378 -0.268008 22.1221 -0.268008 23.1951 0.804023C23.714 1.32293 24 2.01307 24 2.74807C24 3.48307 23.714 4.17298 23.194 4.69212L12.8381 15.0491C12.7336 15.154 12.6003 15.2253 12.4551 15.254L8.92002 15.961C8.87094 15.971 8.82098 15.976 8.77208 15.976ZM10.17 12.0601L9.72894 14.27L11.938 13.828L22.1339 3.63209C22.3701 3.39499 22.5 3.08205 22.5 2.74807C22.5 2.41409 22.3701 2.10096 22.134 1.86401C21.648 1.37698 20.855 1.37698 20.3661 1.86401L10.17 12.0601Z" fill="white"/>
<path d="M21.25 6.3268C21.058 6.3268 20.866 6.25372 20.72 6.10667L17.892 3.27772C17.599 2.98475 17.599 2.50977 17.892 2.2168C18.1849 1.92383 18.6599 1.92383 18.9531 2.2168L21.781 5.04575C22.0739 5.33872 22.0739 5.8137 21.781 6.10667C21.6401 6.24749 21.4491 6.32666 21.25 6.3268Z" fill="white"/>
</svg>
