<svg width="24" height="24" viewBox="0 0 24 24" fill="none" xmlns="http://www.w3.org/2000/svg">
<circle cx="12" cy="12" r="12" fill="#FBB45D"/>
<g clip-path="url(#clip0_23_354)">
<path d="M12 14.3367C11.2336 14.3367 10.6102 13.7156 10.6102 12.9468L10.6102 7.38745C10.6102 6.62105 11.2313 5.99761 12 5.99761C12.7665 5.99761 13.3899 6.6187 13.3899 7.38745L13.3899 12.9468C13.3899 13.7156 12.7665 14.3367 12 14.3367Z" fill="white"/>
<path d="M12 15.2203C11.2325 15.2203 10.6102 15.8426 10.6102 16.6102C10.6102 17.3777 11.2325 18 12 18C12.7676 18 13.3899 17.3777 13.3899 16.6102C13.3899 15.8426 12.7676 15.2203 12 15.2203Z" fill="white"/>
</g>
<defs>
<clipPath id="clip0_23_354">
<rect width="12" height="12" fill="white" transform="translate(18 18) rotate(180)"/>
</clipPath>
</defs>
</svg>
