<svg width="14" height="14" viewBox="0 0 14 14" fill="none" xmlns="http://www.w3.org/2000/svg">
<g opacity="0.7">
<path d="M1.3125 3.5H7.93713C8.13269 4.2525 8.81169 4.8125 9.625 4.8125C10.4383 4.8125 11.1173 4.2525 11.3129 3.5H12.6875C12.8035 3.5 12.9148 3.45391 12.9969 3.37186C13.0789 3.28981 13.125 3.17853 13.125 3.0625C13.125 2.94647 13.0789 2.83519 12.9969 2.75314C12.9148 2.67109 12.8035 2.625 12.6875 2.625H11.3129C11.1173 1.8725 10.4383 1.3125 9.625 1.3125C8.81169 1.3125 8.13269 1.8725 7.93713 2.625H1.3125C1.19647 2.625 1.08519 2.67109 1.00314 2.75314C0.921094 2.83519 0.875 2.94647 0.875 3.0625C0.875 3.17853 0.921094 3.28981 1.00314 3.37186C1.08519 3.45391 1.19647 3.5 1.3125 3.5ZM9.625 2.1875C10.1076 2.1875 10.5 2.57994 10.5 3.0625C10.5 3.54506 10.1076 3.9375 9.625 3.9375C9.14244 3.9375 8.75 3.54506 8.75 3.0625C8.75 2.57994 9.14244 2.1875 9.625 2.1875ZM12.6875 6.5625H6.06287C5.86731 5.81 5.18831 5.25 4.375 5.25C3.56169 5.25 2.88269 5.81 2.68713 6.5625H1.3125C1.19647 6.5625 1.08519 6.60859 1.00314 6.69064C0.921094 6.77269 0.875 6.88397 0.875 7C0.875 7.11603 0.921094 7.22731 1.00314 7.30936C1.08519 7.39141 1.19647 7.4375 1.3125 7.4375H2.68713C2.88269 8.19 3.56169 8.75 4.375 8.75C5.18831 8.75 5.86731 8.19 6.06287 7.4375H12.6875C12.8035 7.4375 12.9148 7.39141 12.9969 7.30936C13.0789 7.22731 13.125 7.11603 13.125 7C13.125 6.88397 13.0789 6.77269 12.9969 6.69064C12.9148 6.60859 12.8035 6.5625 12.6875 6.5625ZM4.375 7.875C3.89244 7.875 3.5 7.48256 3.5 7C3.5 6.51744 3.89244 6.125 4.375 6.125C4.85756 6.125 5.25 6.51744 5.25 7C5.25 7.48256 4.85756 7.875 4.375 7.875ZM12.6875 10.5H11.3129C11.1173 9.7475 10.4383 9.1875 9.625 9.1875C8.81169 9.1875 8.13269 9.7475 7.93713 10.5H1.3125C1.19647 10.5 1.08519 10.5461 1.00314 10.6281C0.921094 10.7102 0.875 10.8215 0.875 10.9375C0.875 11.0535 0.921094 11.1648 1.00314 11.2469C1.08519 11.3289 1.19647 11.375 1.3125 11.375H7.93713C8.13269 12.1275 8.81169 12.6875 9.625 12.6875C10.4383 12.6875 11.1173 12.1275 11.3129 11.375H12.6875C12.8035 11.375 12.9148 11.3289 12.9969 11.2469C13.0789 11.1648 13.125 11.0535 13.125 10.9375C13.125 10.8215 13.0789 10.7102 12.9969 10.6281C12.9148 10.5461 12.8035 10.5 12.6875 10.5ZM9.625 11.8125C9.14244 11.8125 8.75 11.4201 8.75 10.9375C8.75 10.4549 9.14244 10.0625 9.625 10.0625C10.1076 10.0625 10.5 10.4549 10.5 10.9375C10.5 11.4201 10.1076 11.8125 9.625 11.8125Z" fill="black"/>
</g>
</svg>
