<svg width="50" height="50" viewBox="0 0 50 50" fill="none" xmlns="http://www.w3.org/2000/svg">
<circle opacity="0.1" cx="25" cy="25" r="25" fill="#149C68"/>
<path d="M17.8165 16.2164H19.873C20.0695 14.3819 17.578 14.3939 17.7768 16.2201C17.7898 16.2169 17.8032 16.2157 17.8165 16.2164ZM32.2233 16.9439C32.2098 16.9139 17.8401 16.9578 17.8165 16.9401C17.6247 16.9408 17.4409 17.0174 17.3053 17.1531C17.1697 17.2889 17.0933 17.4728 17.0928 17.6646V18.3126C17.0935 18.5044 17.1699 18.6881 17.3055 18.8236C17.4411 18.9592 17.6248 19.0357 17.8165 19.0364H18.5733L23.2656 23.653V34.7943C23.2655 34.887 23.2837 34.9789 23.3191 35.0646C23.3545 35.1503 23.4066 35.2282 23.4722 35.2938C23.5378 35.3593 23.6157 35.4113 23.7014 35.4467C23.7871 35.4821 23.879 35.5002 23.9718 35.5H26.0283C26.1211 35.5002 26.213 35.4821 26.2987 35.4467C26.3845 35.4112 26.4624 35.3592 26.528 35.2936C26.5936 35.228 26.6456 35.1501 26.6811 35.0643C26.7165 34.9786 26.7346 34.8867 26.7344 34.7939V23.653L31.4268 19.0368H32.1835C32.3753 19.0361 32.5591 18.9595 32.6947 18.8239C32.8303 18.6882 32.9067 18.5044 32.9073 18.3126V17.6646C32.9076 17.4796 32.8368 17.3016 32.7094 17.1674C32.5821 17.0333 32.408 16.9532 32.2233 16.9439ZM23.2656 22.6394L19.6019 19.0368H23.2656V22.6394ZM26.7344 22.6394V19.0368H30.3981L26.7344 22.6394ZM32.1835 16.2164C32.1969 16.2157 32.2103 16.2169 32.2233 16.2201C32.4198 14.3901 29.9324 14.3864 30.127 16.2164H32.1835ZM26.7344 15.2061C26.7346 15.1133 26.7165 15.0214 26.6811 14.9357C26.6456 14.8499 26.5936 14.772 26.528 14.7064C26.4624 14.6408 26.3845 14.5888 26.2987 14.5533C26.213 14.5179 26.1211 14.4998 26.0283 14.5H23.9718C23.879 14.4998 23.7871 14.5179 23.7013 14.5533C23.6156 14.5888 23.5376 14.6408 23.472 14.7064C23.4064 14.772 23.3544 14.8499 23.319 14.9357C23.2836 15.0214 23.2655 15.1133 23.2656 15.2061V16.2164H26.7344V15.2061Z" fill="#149C68"/>
<path d="M19.7974 28.6207C19.7981 28.9892 19.9447 29.3424 20.2053 29.603C20.4658 29.8636 20.819 30.0104 21.1875 30.0112H22.5416V27.295H19.7974V28.6207ZM19.7974 25.8764V26.5713H22.5416V25.1703H20.5031C20.3161 25.1712 20.1371 25.2459 20.0049 25.3781C19.8727 25.5104 19.7982 25.6894 19.7974 25.8764ZM29.4971 25.1703H27.4586V26.5713H30.2029V25.8764C30.2021 25.6894 30.1275 25.5104 29.9953 25.3781C29.8631 25.2459 29.6841 25.1712 29.4971 25.1703ZM27.4586 30.0112H28.8124C29.1809 30.0105 29.5342 29.8637 29.7948 29.6031C30.0554 29.3425 30.2022 28.9892 30.2029 28.6207V27.2954H27.4586V30.0112Z" fill="#149C68"/>
</svg>
