<svg width="40" height="40" viewBox="0 0 40 40" fill="none" xmlns="http://www.w3.org/2000/svg">
<path d="M18.729 24.942H23.2303L26.5984 18.3317H22.0971L18.729 24.942ZM31.5089 18.3317H27.6608L24.2927 24.942H28.1408L31.5089 18.3317ZM31.4066 8.88847L34.7747 2.2782H30.2734L26.9053 8.88847H31.4066ZM35.8371 9.83279H31.9889L28.1408 17.3874H31.9889L35.8371 9.83279ZM30.9266 9.83279H26.4253L22.5772 17.3874H27.0784L30.9266 9.83279ZM16.022 17.3874L19.8701 9.83279H15.5341L11.686 17.3874H16.022ZM22.7503 25.8863H18.249L14.0468 34.1334H18.5481L22.7503 25.8863ZM12.9844 34.1334L17.1867 25.8863H12.7562L8.55396 34.1334H12.9844ZM17.0844 17.3874H21.5148L25.3629 9.83279H20.9325L17.0844 17.3874ZM25.843 8.88847L29.211 2.2782H24.7806L21.4125 8.88847H25.843Z" fill="#149C68"/>
<path d="M7.13746 10.9817C8.91068 10.9817 10.3482 9.54423 10.3482 7.77101C10.3482 5.99778 8.91068 4.5603 7.13746 4.5603C5.36424 4.5603 3.92676 5.99778 3.92676 7.77101C3.92676 9.54423 5.36424 10.9817 7.13746 10.9817Z" fill="#149C68"/>
<path d="M12.1738 24.942L15.5419 18.3318H11.2059L7.83782 24.942H12.1738ZM34.3497 38.6033H5.82326C5.31962 38.6033 4.91042 39.0125 4.91042 39.5161V39.7364H35.9629V38.6033H34.3497ZM33.6257 20.244V22.4789C33.6179 23.1163 33.9877 23.7065 34.5701 23.9741C34.7668 24.0764 34.9793 24.1315 35.1996 24.1394H35.294C35.6088 24.1394 35.9157 24.0528 36.1833 23.8797C36.6712 23.5728 36.9624 23.0455 36.9624 22.471V13.7282L34.4127 18.7095L33.6257 20.244ZM39.9921 3.75769L24.1746 34.826C24.0881 34.9833 23.9307 35.0778 23.7497 35.0778H3.55688L4.54056 36.0221H24.4815L34.3812 16.7107L37.0174 11.5562L39.9999 5.7329L39.9921 3.75769ZM35.837 25.0365L35.6796 25.0601H35.6088L35.5223 25.0758H34.8298V37.6589H35.9708V25.005L35.8842 25.0207L35.837 25.0365Z" fill="#149C68"/>
<path d="M13.2363 24.942H17.6667L21.0348 18.3317H16.6044L13.2363 24.942ZM11.6939 25.8863H7.35786L3.15562 34.1334H7.49164L11.6939 25.8863ZM36.325 8.88849L39.6852 2.27822H35.8371L32.469 8.88849H36.325ZM23.7183 2.27822H19.3823L16.0142 8.88849H20.3502L23.7183 2.27822ZM27.6608 25.8863H23.8127L19.6105 34.1334H23.4665L27.6608 25.8863ZM10.633 11.5241L11.2959 10.8517L12.5453 12.0837L11.8824 12.756L10.633 11.5241ZM0 6.92901H1.75487V7.87334H0V6.92901ZM1.72638 2.74015L2.3893 2.06779L3.6388 3.29966L2.97588 3.97202L1.72638 2.74015ZM1.75408 12.1088L2.99477 10.8681L3.6624 11.5357L2.42172 12.7764L1.75408 12.1088ZM6.69904 12.7874L7.64336 12.7808L7.65564 14.5356L6.71131 14.5422L6.69904 12.7874ZM12.5123 6.92901H14.2672V7.87334H12.5123V6.92901ZM10.6026 3.27212L11.8432 2.03136L12.5109 2.69899L11.2702 3.93968L10.6026 3.27212ZM6.61224 0.274677L7.55656 0.268066L7.56884 2.02294L6.62451 2.02955L6.61224 0.274677Z" fill="#149C68"/>
</svg>
