<svg width="50" height="50" viewBox="0 0 50 50" fill="none" xmlns="http://www.w3.org/2000/svg">
<circle opacity="0.1" cx="25" cy="25" r="25" fill="#149C68"/>
<path d="M15.1816 20.6364H29.3634V29.3636H15.1816V20.6364Z" fill="#32BF7A"/>
<path d="M35.9091 22.8182V20.6364C35.9091 19.4314 34.9323 18.4546 33.7273 18.4546H15.1818C13.9768 18.4545 13 19.4314 13 20.6363V29.3636C13 30.5686 13.9768 31.5454 15.1818 31.5454H33.7272C34.9322 31.5454 35.909 30.5686 35.909 29.3636V27.1818C36.5115 27.1818 37 26.6934 37 26.0909V23.9091C37 23.3066 36.5116 22.8182 35.9091 22.8182ZM34.8182 23.9091V29.3636C34.8182 29.9661 34.3298 30.4545 33.7273 30.4545H15.1818C14.5793 30.4545 14.0909 29.9661 14.0909 29.3636V20.6363C14.0909 20.0339 14.5793 19.5454 15.1818 19.5454H33.7272C34.3297 19.5454 34.8182 20.0339 34.8182 20.6363L34.8182 23.9091Z" fill="#32BF7A"/>
</svg>
