<svg width="50" height="50" viewBox="0 0 50 50" fill="none" xmlns="http://www.w3.org/2000/svg">
<circle opacity="0.1" cx="25" cy="25" r="25" fill="#149C68"/>
<g clip-path="url(#clip0_33_1019)">
<path d="M24.2374 27.9651H26.9381L28.959 23.9989H26.2582L24.2374 27.9651ZM31.9053 23.9989H29.5964L27.5756 27.9651H29.8844L31.9053 23.9989ZM31.8439 18.333L33.8648 14.3668H31.164L29.1431 18.333H31.8439ZM34.5022 18.8996H32.1933L29.8844 23.4323H32.1933L34.5022 18.8996ZM31.5559 18.8996H28.8551L26.5463 23.4323H29.247L31.5559 18.8996ZM22.6131 23.4323L24.922 18.8996H22.3204L20.0115 23.4323H22.6131ZM26.6501 28.5317H23.9494L21.428 33.4799H24.1288L26.6501 28.5317ZM20.7906 33.4799L23.3119 28.5317H20.6537L18.1323 33.4799H20.7906ZM23.2506 23.4323H25.9088L28.2177 18.8996H25.5594L23.2506 23.4323ZM28.5057 18.333L30.5266 14.3668H27.8683L25.8475 18.333H28.5057Z" fill="#149C68"/>
<path d="M17.2824 19.5889C18.3463 19.5889 19.2088 18.7264 19.2088 17.6625C19.2088 16.5986 18.3463 15.7361 17.2824 15.7361C16.2184 15.7361 15.356 16.5986 15.356 17.6625C15.356 18.7264 16.2184 19.5889 17.2824 19.5889Z" fill="#149C68"/>
<path d="M20.3045 27.9651L22.3253 23.999H19.7237L17.7028 27.9651H20.3045ZM33.61 36.1619H16.4941C16.1919 36.1619 15.9464 36.4074 15.9464 36.7096V36.8418H34.5779V36.1619H33.61ZM33.1756 25.1463V26.4873C33.1709 26.8697 33.3928 27.2238 33.7422 27.3844C33.8602 27.4457 33.9877 27.4788 34.1199 27.4835H34.1766C34.3654 27.4835 34.5496 27.4316 34.7101 27.3277C35.0029 27.1436 35.1776 26.8272 35.1776 26.4825V21.2368L33.6478 24.2256L33.1756 25.1463ZM36.9954 15.2545L27.5049 33.8955C27.453 33.9899 27.3586 34.0466 27.25 34.0466H15.1343L15.7245 34.6132H27.6891L33.6289 23.0263L35.2106 19.9336L37.0001 16.4396L36.9954 15.2545ZM34.5024 28.0218L34.4079 28.0359H34.3654L34.3135 28.0454H33.898V35.5953H34.5826V28.0029L34.5307 28.0123L34.5024 28.0218Z" fill="#149C68"/>
<path d="M20.9418 27.9651H23.6L25.6209 23.999H22.9626L20.9418 27.9651ZM20.0163 28.5317H17.4147L14.8934 33.48H17.495L20.0163 28.5317ZM34.795 18.333L36.8111 14.3669H34.5023L32.4814 18.333H34.795ZM27.231 14.3669H24.6294L22.6085 18.333H25.2101L27.231 14.3669ZM29.5965 28.5317H27.2876L24.7663 33.48H27.0799L29.5965 28.5317ZM19.3798 19.9144L19.7776 19.511L20.5272 20.2501L20.1295 20.6536L19.3798 19.9144ZM13 17.1573H14.0529V17.7239H13V17.1573ZM14.0358 14.644L14.4336 14.2406L15.1833 14.9797L14.7855 15.3831L14.0358 14.644ZM14.0524 20.2652L14.7969 19.5208L15.1974 19.9214L14.453 20.6658L14.0524 20.2652ZM17.0194 20.6723L17.586 20.6684L17.5934 21.7213L17.0268 21.7253L17.0194 20.6723ZM20.5074 17.1573H21.5603V17.7239H20.5074V17.1573ZM19.3615 14.9632L20.1059 14.2187L20.5065 14.6193L19.7621 15.3637L19.3615 14.9632ZM16.9673 13.1647L17.5339 13.1608L17.5413 14.2137L16.9747 14.2177L16.9673 13.1647Z" fill="#149C68"/>
</g>
<defs>
<clipPath id="clip0_33_1019">
<rect width="24" height="24" fill="white" transform="translate(13 13)"/>
</clipPath>
</defs>
</svg>
