<svg width="28" height="36" viewBox="0 0 28 36" fill="none" xmlns="http://www.w3.org/2000/svg">
<path d="M2.02754 3.36063H5.45504C5.78254 0.303127 1.63004 0.323128 1.96129 3.36688C1.98294 3.36154 2.00527 3.35943 2.02754 3.36063ZM26.0388 4.57313C26.0163 4.52313 2.06691 4.59625 2.02754 4.56688C1.70776 4.56803 1.40143 4.69566 1.17543 4.9219C0.949424 5.14813 0.822112 5.4546 0.821289 5.77438V6.85438C0.822442 7.17394 0.949899 7.48008 1.17587 7.70605C1.40183 7.93202 1.70798 8.05947 2.02754 8.06063H3.28879L11.1094 15.755V34.3238C11.1092 34.4783 11.1394 34.6315 11.1985 34.7743C11.2576 34.9172 11.3443 35.047 11.4536 35.1563C11.5629 35.2655 11.6928 35.3522 11.8357 35.4111C11.9786 35.4701 12.1317 35.5003 12.2863 35.5H15.7138C15.8684 35.5003 16.0216 35.4701 16.1645 35.4111C16.3075 35.3521 16.4374 35.2654 16.5467 35.156C16.656 35.0467 16.7427 34.9168 16.8018 34.7739C16.8608 34.631 16.891 34.4778 16.8907 34.3231V15.755L24.7113 8.06125H25.9725C26.2922 8.0601 26.5985 7.93256 26.8244 7.70645C27.0504 7.48035 27.1778 7.17405 27.1788 6.85438V5.77438C27.1793 5.46607 27.0613 5.16937 26.849 4.94574C26.6368 4.72211 26.3467 4.5887 26.0388 4.57313ZM11.1094 14.0656L5.00316 8.06125H11.1094V14.0656ZM16.8907 14.0656V8.06125H22.9969L16.8907 14.0656ZM25.9725 3.36063C25.9948 3.35943 26.0171 3.36154 26.0388 3.36688C26.3663 0.316878 22.2207 0.310627 22.545 3.36063H25.9725ZM16.8907 1.67688C16.891 1.52224 16.8608 1.36905 16.8018 1.22612C16.7427 1.08318 16.656 0.953315 16.5467 0.843966C16.4374 0.734618 16.3075 0.647943 16.1645 0.588916C16.0216 0.529889 15.8684 0.499673 15.7138 0.500003H12.2863C12.1316 0.499673 11.9785 0.529889 11.8355 0.588916C11.6926 0.647943 11.5627 0.734618 11.4534 0.843966C11.344 0.953315 11.2574 1.08318 11.1983 1.22612C11.1393 1.36905 11.1091 1.52224 11.1094 1.67688V3.36063H16.8907V1.67688Z" fill="#43C8C1"/>
<path d="M5.32886 24.0343C5.33001 24.6485 5.57446 25.2372 6.00869 25.6715C6.44292 26.1059 7.03156 26.3505 7.64573 26.3518H9.90261V21.8249H5.32886V24.0343ZM5.32886 19.4606V20.6187H9.90261V18.2837H6.50511C6.19349 18.2852 5.89508 18.4097 5.67479 18.6301C5.4545 18.8505 5.33017 19.149 5.32886 19.4606ZM21.4951 18.2837H18.0976V20.6187H22.6714V19.4606C22.67 19.149 22.5457 18.8505 22.3254 18.6301C22.1051 18.4097 21.8067 18.2852 21.4951 18.2837ZM18.0976 26.3518H20.3539C20.9681 26.3507 21.5569 26.1061 21.9913 25.6718C22.4257 25.2374 22.6702 24.6486 22.6714 24.0343V21.8256H18.0976V26.3518Z" fill="#43C8C1"/>
</svg>
