<svg width="54" height="48" viewBox="0 0 54 48" fill="none" xmlns="http://www.w3.org/2000/svg">
<path d="M27 18.7931C32.0676 18.7931 36.1758 14.685 36.1758 9.61731C36.1758 4.54967 32.0676 0.441528 27 0.441528C21.9324 0.441528 17.8242 4.54967 17.8242 9.61731C17.8242 14.685 21.9324 18.7931 27 18.7931Z" fill="#149C68"/>
<path d="M45.5625 18.793C48.7662 18.793 51.3633 16.1959 51.3633 12.9922C51.3633 9.78851 48.7662 7.19141 45.5625 7.19141C42.3588 7.19141 39.7617 9.78851 39.7617 12.9922C39.7617 16.1959 42.3588 18.793 45.5625 18.793Z" fill="#149C68"/>
<path d="M8.4375 18.793C11.6412 18.793 14.2383 16.1959 14.2383 12.9922C14.2383 9.78851 11.6412 7.19141 8.4375 7.19141C5.23382 7.19141 2.63672 9.78851 2.63672 12.9922C2.63672 16.1959 5.23382 18.793 8.4375 18.793Z" fill="#149C68"/>
<path d="M14.1529 24.0022C11.8695 22.1314 9.80153 22.379 7.16133 22.379C3.21258 22.379 0 25.5726 0 29.4971V41.0153C0 42.7197 1.39113 44.1056 3.10184 44.1056C10.4874 44.1056 9.59766 44.2392 9.59766 43.7871C9.59766 35.6253 8.63093 29.6398 14.1529 24.0022Z" fill="#149C68"/>
<path d="M29.5113 22.4211C24.8998 22.0364 20.8914 22.4255 17.434 25.2793C11.6484 29.9136 12.7618 36.1534 12.7618 43.7869C12.7618 45.8066 14.405 47.4805 16.4553 47.4805C38.7179 47.4805 39.6039 48.1986 40.924 45.2751C41.357 44.2864 41.2383 44.6006 41.2383 35.1427C41.2383 27.6306 34.7338 22.4211 29.5113 22.4211ZM46.8387 22.3789C44.1841 22.3789 42.1276 22.1338 39.8472 24.0021C45.3279 29.5978 44.4024 35.1749 44.4024 43.7869C44.4024 44.2419 43.6638 44.1055 50.7875 44.1055C52.5594 44.1055 54.0001 42.67 54.0001 40.9055V29.497C54.0001 25.5725 50.7875 22.3789 46.8387 22.3789Z" fill="#149C68"/>
</svg>
