<svg width="22" height="6" viewBox="0 0 22 6" fill="none" xmlns="http://www.w3.org/2000/svg">
<path d="M11 0.399609C12.4 0.399609 13.6 1.59961 13.6 2.99961C13.6 4.39961 12.4 5.59961 11 5.59961C9.59998 5.59961 8.39997 4.39961 8.39997 2.99961C8.39997 1.59961 9.59997 0.399609 11 0.399609ZM11 4.39961C11.8 4.39961 12.4 3.79961 12.4 2.99961C12.4 2.19961 11.8 1.59961 11 1.59961C10.2 1.59961 9.59998 2.19961 9.59998 2.99961C9.59998 3.79961 10.2 4.39961 11 4.39961Z" fill="white"/>
<path d="M2.99997 0.39961C4.39997 0.39961 5.59998 1.59961 5.59998 2.99961C5.59998 4.39961 4.39997 5.59961 2.99998 5.59961C1.59998 5.59961 0.399975 4.39961 0.399975 2.99961C0.399974 1.59961 1.59998 0.39961 2.99997 0.39961ZM2.99998 4.39961C3.79997 4.39961 4.39997 3.79961 4.39997 2.99961C4.39997 2.19961 3.79997 1.59961 2.99997 1.59961C2.19998 1.59961 1.59998 2.19961 1.59998 2.99961C1.59998 3.79961 2.19998 4.39961 2.99998 4.39961ZM19 0.399609C20.4 0.399609 21.6 1.59961 21.6 2.99961C21.6 4.39961 20.4 5.59961 19 5.59961C17.6 5.59961 16.4 4.39961 16.4 2.99961C16.4 1.59961 17.6 0.399609 19 0.399609ZM19 4.39961C19.8 4.39961 20.4 3.79961 20.4 2.99961C20.4 2.19961 19.8 1.59961 19 1.59961C18.2 1.59961 17.6 2.19961 17.6 2.99961C17.6 3.79961 18.2 4.39961 19 4.39961Z" fill="white"/>
</svg>
