<svg width="20" height="20" viewBox="0 0 20 20" fill="none" xmlns="http://www.w3.org/2000/svg">
<path d="M17.0502 2.94987C13.1728 -0.960127 6.85986 -0.986534 2.94987 2.89082C-0.960127 6.76818 -0.986534 13.0811 2.89082 16.9911C2.91041 17.0109 2.93008 17.0306 2.94987 17.0502C6.82726 20.9602 13.1402 20.9866 17.0502 17.1092C20.9602 13.2318 20.9866 6.91886 17.1092 3.00891C17.0896 2.98914 17.0699 2.96946 17.0502 2.94987ZM9.99998 18.594C5.26131 18.594 1.40607 14.7387 1.40607 10.0001C1.40607 5.26138 5.26131 1.40615 9.99998 1.40615C14.7387 1.40615 18.5939 5.26138 18.5939 10.0001C18.5939 14.7387 14.7387 18.594 9.99998 18.594Z" fill="black"/>
<path d="M11.5565 14.0147H10.6884V8.12903C10.6884 7.74891 10.3802 7.44072 10.0001 7.44072H8.44369C8.06356 7.44072 7.75537 7.74887 7.75537 8.12903C7.75537 8.50916 8.06352 8.81735 8.44369 8.81735H9.31178V14.0147H8.44369C8.06356 14.0147 7.75537 14.3228 7.75537 14.703C7.75537 15.0831 8.06352 15.3913 8.44369 15.3913H11.5564C11.9366 15.3913 12.2447 15.0831 12.2447 14.703C12.2448 14.3228 11.9366 14.0147 11.5565 14.0147ZM10.0001 6.73834C10.3802 6.73834 10.6884 6.43019 10.6884 6.05003V5.29714C10.6884 4.91702 10.3803 4.60883 10.0001 4.60883C9.61997 4.60883 9.31178 4.91698 9.31178 5.29714V6.05003C9.31178 6.43019 9.61997 6.73834 10.0001 6.73834Z" fill="black"/>
</svg>
