<svg width="20" height="15" viewBox="0 0 20 15" fill="none" xmlns="http://www.w3.org/2000/svg">
<path d="M16.3952 13.3953L3.60379 0.604299L3.60106 0.601174C3.53181 0.532486 3.4497 0.478111 3.35944 0.441154C3.26917 0.404197 3.17251 0.38538 3.07497 0.385779C2.97744 0.386178 2.88093 0.405785 2.79097 0.443479C2.70101 0.481174 2.61936 0.536219 2.55067 0.605471C2.48198 0.674722 2.42761 0.756825 2.39065 0.847091C2.35369 0.937357 2.33488 1.03402 2.33527 1.13156C2.33608 1.32854 2.41511 1.51714 2.55497 1.65586L3.67489 2.77578C2.31673 3.70596 1.14769 4.88574 0.229965 6.25235C0.0801019 6.47361 0 6.73471 0 7.00195C0 7.26919 0.0801019 7.5303 0.229965 7.75156C2.57254 11.2188 6.28622 13.25 9.99989 13.2246C11.2028 13.229 12.3977 13.0287 13.5335 12.6324L15.3464 14.4453C15.4861 14.5805 15.6732 14.6555 15.8675 14.6541C16.0619 14.6528 16.248 14.5753 16.3858 14.4382C16.5237 14.3012 16.6022 14.1155 16.6046 13.9212C16.607 13.7268 16.5331 13.5393 16.3987 13.3988L16.3952 13.3953ZM9.99989 11.2086C9.29629 11.2083 8.60398 11.0317 7.98622 10.695C7.36846 10.3582 6.84496 9.87195 6.46355 9.2807C6.08214 8.68946 5.85499 8.01205 5.80286 7.31039C5.75073 6.60872 5.87528 5.90519 6.16512 5.26406L7.33504 6.43399C7.24081 6.87805 7.25902 7.33861 7.38802 7.77385C7.51702 8.20908 7.75272 8.60519 8.07371 8.92618C8.3947 9.24717 8.79081 9.48287 9.22604 9.61187C9.66127 9.74087 10.1218 9.75908 10.5659 9.66485L11.7358 10.8348C11.1905 11.082 10.5986 11.2095 9.99989 11.2086ZM19.7698 6.25039C17.4272 2.78125 13.7136 0.750002 9.99989 0.775392C8.79697 0.771035 7.60207 0.971286 6.46629 1.36758L8.26317 3.16445C9.04289 2.8116 9.91163 2.70475 10.7536 2.85815C11.5956 3.01155 12.3708 3.41792 12.976 4.02309C13.5812 4.62827 13.9876 5.40351 14.141 6.24549C14.2944 7.08748 14.1875 7.95622 13.8347 8.73594L16.3245 11.2258C17.6829 10.2958 18.8521 9.11595 19.7698 7.74922C19.9196 7.528 19.9996 7.26697 19.9996 6.99981C19.9996 6.73265 19.9196 6.47162 19.7698 6.25039Z" fill="black"/>
<path d="M10.0001 4.27579C9.80987 4.27581 9.62017 4.29571 9.43408 4.33516L12.6649 7.56563C12.7492 7.16872 12.7437 6.758 12.6489 6.36348C12.5541 5.96895 12.3724 5.60059 12.117 5.2853C11.8616 4.97 11.539 4.71574 11.1727 4.54108C10.8065 4.36643 10.4059 4.27579 10.0001 4.27579Z" fill="black"/>
</svg>
