<svg width="20" height="20" viewBox="0 0 20 20" fill="none" xmlns="http://www.w3.org/2000/svg">
<g clip-path="url(#clip0_108_438)">
<path d="M19.3924 7.8488C18.6401 6.6169 17.6911 5.51651 16.5832 4.5913L18.9166 2.25796C19.0684 2.10079 19.1524 1.89029 19.1505 1.6718C19.1486 1.4533 19.0609 1.24429 18.9064 1.08978C18.7519 0.935274 18.5429 0.847633 18.3244 0.845735C18.1059 0.843836 17.8954 0.927831 17.7382 1.07963L15.2007 3.62046C13.6277 2.68615 11.8294 2.19918 9.99989 2.21213C4.84072 2.21213 1.90072 5.7438 0.60739 7.8488C0.20783 8.49505 -0.0038147 9.23983 -0.0038147 9.99963C-0.0038147 10.7594 0.20783 11.5042 0.60739 12.1505C1.35969 13.3824 2.30863 14.4828 3.41656 15.408L1.08322 17.7413C1.00363 17.8182 0.940147 17.9101 0.896472 18.0118C0.852798 18.1135 0.82981 18.2228 0.828848 18.3335C0.827887 18.4441 0.848971 18.5538 0.890872 18.6563C0.932773 18.7587 0.99465 18.8517 1.07289 18.93C1.15114 19.0082 1.24418 19.0701 1.3466 19.112C1.44901 19.1539 1.55874 19.175 1.66939 19.174C1.78004 19.173 1.88939 19.1501 1.99106 19.1064C2.09273 19.0627 2.18468 18.9992 2.26156 18.9196L4.80489 16.3763C6.37595 17.3105 8.17212 17.7983 9.99989 17.7871C15.1591 17.7871 18.0991 14.2555 19.3924 12.1505C19.792 11.5042 20.0036 10.7594 20.0036 9.99963C20.0036 9.23983 19.792 8.49505 19.3924 7.8488ZM2.02739 11.278C1.79 10.8938 1.66427 10.4512 1.66427 9.99963C1.66427 9.54807 1.79 9.10542 2.02739 8.7213C3.13906 6.9163 5.65156 3.8788 9.99989 3.8788C11.3835 3.87105 12.7476 4.20449 13.9716 4.84963L12.2941 6.52713C11.494 5.99596 10.5348 5.75796 9.57925 5.8535C8.62369 5.94904 7.73061 6.37224 7.05156 7.0513C6.37251 7.73035 5.9493 8.62343 5.85376 9.57899C5.75822 10.5346 5.99622 11.4937 6.52739 12.2938L4.60239 14.2188C3.58164 13.3936 2.71059 12.3988 2.02739 11.278ZM12.4999 9.99963C12.4999 10.6627 12.2365 11.2986 11.7677 11.7674C11.2988 12.2362 10.6629 12.4996 9.99989 12.4996C9.62865 12.4982 9.26256 12.4127 8.92906 12.2496L12.2499 8.9288C12.413 9.26229 12.4985 9.62839 12.4999 9.99963ZM7.49989 9.99963C7.49989 9.33659 7.76328 8.7007 8.23212 8.23186C8.70096 7.76302 9.33685 7.49963 9.99989 7.49963C10.3711 7.50107 10.7372 7.58654 11.0707 7.74963L7.74989 11.0705C7.5868 10.737 7.50133 10.3709 7.49989 9.99963ZM17.9724 11.278C16.8607 13.083 14.3482 16.1205 9.99989 16.1205C8.61633 16.1282 7.25219 15.7948 6.02822 15.1496L7.70572 13.4721C8.50578 14.0033 9.46497 14.2413 10.4205 14.1458C11.3761 14.0502 12.2692 13.627 12.9482 12.948C13.6273 12.2689 14.0505 11.3758 14.146 10.4203C14.2416 9.46471 14.0036 8.50552 13.4724 7.70546L15.3974 5.78046C16.4181 6.6057 17.2892 7.6005 17.9724 8.7213C18.2098 9.10542 18.3355 9.54807 18.3355 9.99963C18.3355 10.4512 18.2098 10.8938 17.9724 11.278Z" fill="#15161A"/>
</g>
<defs>
<clipPath id="clip0_108_438">
<rect width="20" height="20" fill="white"/>
</clipPath>
</defs>
</svg>
