<svg width="20" height="20" viewBox="0 0 20 20" fill="none" xmlns="http://www.w3.org/2000/svg">
<g opacity="0.3">
<path d="M16.3952 16.3953L3.60379 3.6043L3.60106 3.60117C3.53181 3.53249 3.4497 3.47811 3.35944 3.44115C3.26917 3.4042 3.17251 3.38538 3.07497 3.38578C2.97744 3.38618 2.88093 3.40578 2.79097 3.44348C2.70101 3.48117 2.61936 3.53622 2.55067 3.60547C2.48198 3.67472 2.42761 3.75683 2.39065 3.84709C2.35369 3.93736 2.33488 4.03402 2.33527 4.13156C2.33608 4.32854 2.41511 4.51714 2.55497 4.65586L3.67489 5.77578C2.31673 6.70596 1.14769 7.88574 0.229965 9.25235C0.0801019 9.47361 0 9.73471 0 10.002C0 10.2692 0.0801019 10.5303 0.229965 10.7516C2.57254 14.2188 6.28622 16.25 9.99989 16.2246C11.2028 16.229 12.3977 16.0287 13.5335 15.6324L15.3464 17.4453C15.4861 17.5805 15.6732 17.6555 15.8675 17.6541C16.0619 17.6528 16.248 17.5753 16.3858 17.4382C16.5237 17.3012 16.6022 17.1155 16.6046 16.9212C16.607 16.7268 16.5331 16.5393 16.3987 16.3988L16.3952 16.3953ZM9.99989 14.2086C9.29629 14.2083 8.60398 14.0317 7.98622 13.695C7.36846 13.3582 6.84496 12.872 6.46355 12.2807C6.08214 11.6895 5.85499 11.012 5.80286 10.3104C5.75073 9.60872 5.87528 8.90519 6.16512 8.26406L7.33504 9.43399C7.24081 9.87805 7.25902 10.3386 7.38802 10.7738C7.51702 11.2091 7.75272 11.6052 8.07371 11.9262C8.3947 12.2472 8.79081 12.4829 9.22604 12.6119C9.66127 12.7409 10.1218 12.7591 10.5659 12.6648L11.7358 13.8348C11.1905 14.082 10.5986 14.2095 9.99989 14.2086ZM19.7698 9.25039C17.4272 5.78125 13.7136 3.75 9.99989 3.77539C8.79697 3.77104 7.60207 3.97129 6.46629 4.36758L8.26317 6.16445C9.04289 5.8116 9.91163 5.70475 10.7536 5.85815C11.5956 6.01155 12.3708 6.41792 12.976 7.02309C13.5812 7.62827 13.9876 8.40351 14.141 9.24549C14.2944 10.0875 14.1875 10.9562 13.8347 11.7359L16.3245 14.2258C17.6829 13.2958 18.8521 12.116 19.7698 10.7492C19.9196 10.528 19.9996 10.267 19.9996 9.99981C19.9996 9.73265 19.9196 9.47162 19.7698 9.25039Z" fill="black"/>
<path d="M10.0001 7.27579C9.80987 7.27581 9.62017 7.29571 9.43408 7.33516L12.6649 10.5656C12.7492 10.1687 12.7437 9.758 12.6489 9.36348C12.5541 8.96895 12.3724 8.60059 12.117 8.2853C11.8616 7.97 11.539 7.71574 11.1727 7.54108C10.8065 7.36643 10.4059 7.27579 10.0001 7.27579Z" fill="black"/>
</g>
</svg>
