<svg width="16" height="10" viewBox="0 0 16 10" fill="none" xmlns="http://www.w3.org/2000/svg">
<path d="M0.105749 5.25611L3.74203 8.89242C3.87265 9.04495 4.10221 9.06273 4.25474 8.93208C4.40727 8.80145 4.42505 8.5719 4.29439 8.41937C4.28221 8.40515 4.26896 8.39187 4.25474 8.37971L1.24026 5.36158L15.6364 5.36158C15.8372 5.36158 16 5.19877 16 4.99793C16 4.79709 15.8372 4.63431 15.6364 4.63431L1.24026 4.63431L4.25474 1.61983C4.40727 1.48921 4.42505 1.25965 4.29439 1.10712C4.16374 0.954591 3.93421 0.936811 3.78168 1.06746C3.76746 1.07965 3.75418 1.0929 3.74203 1.10712L0.105717 4.74343C-0.0352482 4.88521 -0.0352481 5.11427 0.105749 5.25611Z" fill="black"/>
</svg>
