<svg width="38" height="34" viewBox="0 0 38 34" fill="none" xmlns="http://www.w3.org/2000/svg">
<path d="M31.6726 7.109V0.618067C31.6726 0.276655 31.3959 -0.00012207 31.0545 -0.00012207H28.5817C28.2403 -0.00012207 27.9635 0.276655 27.9635 0.618067V4.30896C27.9635 4.48576 27.8967 4.65963 27.7669 4.77962C27.5607 4.97014 27.2617 4.99619 27.0302 4.85899L19.3087 0.283277C19.2141 0.227216 19.1062 0.197404 18.9963 0.196915C18.8863 0.196426 18.7782 0.225277 18.6831 0.280495L0.762114 10.6862C0.668496 10.7406 0.590793 10.8186 0.536782 10.9124C0.48277 11.0062 0.454344 11.1126 0.454346 11.2208V12.3636C0.454346 12.705 0.731109 12.9817 1.07253 12.9817H3.23617C3.57759 12.9817 3.85436 13.2585 3.85436 13.5999V33.3818C3.85436 33.7232 4.13113 34 4.47255 34H33.5272C33.8686 34 34.1454 33.7232 34.1454 33.3818V13.5999C34.1454 13.2585 34.4222 12.9817 34.7636 12.9817H36.9272C37.2686 12.9817 37.5454 12.705 37.5454 12.3635V11.2218C37.5454 11.1134 37.5169 11.0069 37.4628 10.913C37.4086 10.8191 37.3308 10.7411 37.237 10.6868L31.9811 7.64401C31.8873 7.5897 31.8094 7.51168 31.7553 7.41778C31.7011 7.32388 31.6726 7.21739 31.6726 7.109ZM28.0969 18.668L15.7332 31.3408C15.6756 31.3998 15.6068 31.4468 15.5308 31.4788C15.4547 31.5108 15.3731 31.5273 15.2905 31.5273C15.1844 31.5273 15.08 31.4999 14.9875 31.4477C14.7434 31.3103 14.6222 31.0259 14.6922 30.7546L16.9655 21.9454H10.3453C10.2324 21.9454 10.1217 21.9145 10.0251 21.856C9.92857 21.7975 9.84986 21.7137 9.79754 21.6137C9.74522 21.5137 9.72129 21.4012 9.72835 21.2886C9.7354 21.1759 9.77318 21.0673 9.83757 20.9746L17.5649 9.84729C17.6218 9.76533 17.6977 9.69836 17.7861 9.65211C17.8745 9.60586 17.9728 9.5817 18.0726 9.5817H25.4908C25.6036 9.5817 25.7143 9.61257 25.8108 9.67097C25.9073 9.72937 25.986 9.81306 26.0384 9.91299C26.0907 10.0129 26.1147 10.1253 26.1078 10.2379C26.1009 10.3505 26.0633 10.459 25.9991 10.5518L21.107 17.6181H27.6545C27.7761 17.6181 27.895 17.654 27.9963 17.7212C28.0977 17.7885 28.1769 17.8841 28.2241 17.9962C28.2713 18.1083 28.2845 18.2318 28.2618 18.3513C28.2392 18.4708 28.1819 18.581 28.0969 18.668Z" fill="#F76457"/>
<path d="M19.3794 18.5228C19.3271 18.4229 19.3031 18.3106 19.31 18.198C19.3169 18.0854 19.3545 17.9768 19.4188 17.8841L24.3108 10.8177H18.3958L11.5271 20.7087H17.7634C17.8577 20.7087 17.9508 20.7303 18.0355 20.7718C18.1202 20.8134 18.1943 20.8737 18.252 20.9483C18.3098 21.0229 18.3498 21.1097 18.3688 21.2021C18.3878 21.2945 18.3855 21.39 18.3619 21.4814L16.4693 28.8154L26.1876 18.8541H19.927C19.8142 18.8541 19.7035 18.8233 19.607 18.7649C19.5105 18.7065 19.4318 18.6228 19.3794 18.5228Z" fill="#F76457"/>
</svg>
