<svg width="15" height="20" viewBox="0 0 15 20" fill="none" xmlns="http://www.w3.org/2000/svg">
<path d="M13.125 20H1.875C0.84168 20 0 19.1593 0 18.125V9.375C0 8.34074 0.84168 7.5 1.875 7.5H13.125C14.1583 7.5 15 8.34074 15 9.375V18.125C15 19.1593 14.1583 20 13.125 20ZM1.875 8.75C1.53074 8.75 1.25 9.03 1.25 9.375V18.125C1.25 18.47 1.53078 18.75 1.875 18.75H13.125C13.4693 18.75 13.75 18.47 13.75 18.125V9.375C13.75 9.03 13.4692 8.75 13.125 8.75H1.875Z" fill="black"/>
<path d="M11.875 8.75C11.53 8.75 11.25 8.47 11.25 8.125V5C11.25 2.93242 9.56758 1.25 7.5 1.25C5.43242 1.25 3.75 2.93242 3.75 5V8.125C3.75 8.47 3.47 8.75 3.125 8.75C2.78 8.75 2.5 8.47 2.5 8.125V5C2.5 2.24242 4.74242 0 7.5 0C10.2576 0 12.5 2.24242 12.5 5V8.125C12.5 8.47 12.22 8.75 11.875 8.75Z" fill="black"/>
</svg>
