<svg width="24" height="24" viewBox="0 0 24 24" fill="none" xmlns="http://www.w3.org/2000/svg">
<circle cx="12" cy="12" r="12" fill="#FDAAAA"/>
<path d="M16.98 10.56C14.22 7.80004 9.78 7.80004 7.02 10.56C6.78 10.8 6.42 10.8 6.18 10.56C5.94 10.32 5.94 9.96004 6.18 9.72004C9.42 6.48004 14.64 6.48004 17.82 9.72004C18.06 9.96004 18.06 10.32 17.82 10.56C17.58 10.8 17.22 10.8 16.98 10.56Z" fill="#F44336"/>
<path d="M15.24 12.2399C13.44 10.4999 10.56 10.4999 8.82005 12.2399C8.58005 12.4799 8.22005 12.4799 7.98005 12.2399C7.74005 11.9999 7.74005 11.6399 7.98005 11.3999C10.2 9.11994 13.86 9.11994 16.08 11.3999C16.32 11.6399 16.32 11.9999 16.08 12.2399C15.84 12.4799 15.48 12.4799 15.24 12.2399Z" fill="#F44336"/>
<path d="M13.56 14.04C12.72 13.2 11.4 13.2 10.62 14.04C10.38 14.28 10.02 14.28 9.77998 14.04C9.53998 13.8 9.53998 13.38 9.77998 13.14C11.04 11.76 13.14 11.76 14.4 13.14C14.64 13.38 14.64 13.8 14.4 14.04C14.16 14.28 13.8 14.28 13.56 14.04Z" fill="#F44336"/>
<path d="M12.06 16.74C12.6896 16.74 13.2 16.2296 13.2 15.6C13.2 14.9704 12.6896 14.46 12.06 14.46C11.4304 14.46 10.92 14.9704 10.92 15.6C10.92 16.2296 11.4304 16.74 12.06 16.74Z" fill="#F44336"/>
</svg>
