<svg width="24" height="24" viewBox="0 0 24 24" fill="none" xmlns="http://www.w3.org/2000/svg">
<g opacity="0.6">
<path fill-rule="evenodd" clip-rule="evenodd" d="M0.428589 4.28571C0.428589 3.94472 0.564048 3.6177 0.805166 3.37658C1.04628 3.13546 1.37331 3 1.7143 3H22.2857C22.6267 3 22.9537 3.13546 23.1949 3.37658C23.436 3.6177 23.5714 3.94472 23.5714 4.28571C23.5714 4.62671 23.436 4.95373 23.1949 5.19485C22.9537 5.43597 22.6267 5.57143 22.2857 5.57143H1.7143C1.37331 5.57143 1.04628 5.43597 0.805166 5.19485C0.564048 4.95373 0.428589 4.62671 0.428589 4.28571ZM0.428589 12C0.428589 11.659 0.564048 11.332 0.805166 11.0909C1.04628 10.8497 1.37331 10.7143 1.7143 10.7143H22.2857C22.6267 10.7143 22.9537 10.8497 23.1949 11.0909C23.436 11.332 23.5714 11.659 23.5714 12C23.5714 12.341 23.436 12.668 23.1949 12.9091C22.9537 13.1503 22.6267 13.2857 22.2857 13.2857H1.7143C1.37331 13.2857 1.04628 13.1503 0.805166 12.9091C0.564048 12.668 0.428589 12.341 0.428589 12ZM0.428589 19.7143C0.428589 19.3733 0.564048 19.0463 0.805166 18.8051C1.04628 18.564 1.37331 18.4286 1.7143 18.4286H22.2857C22.6267 18.4286 22.9537 18.564 23.1949 18.8051C23.436 19.0463 23.5714 19.3733 23.5714 19.7143C23.5714 20.0553 23.436 20.3823 23.1949 20.6234C22.9537 20.8645 22.6267 21 22.2857 21H1.7143C1.37331 21 1.04628 20.8645 0.805166 20.6234C0.564048 20.3823 0.428589 20.0553 0.428589 19.7143Z" fill="black"/>
</g>
</svg>
