<svg width="24" height="18" viewBox="0 0 24 18" fill="none" xmlns="http://www.w3.org/2000/svg">
<g opacity="0.6">
<path fill-rule="evenodd" clip-rule="evenodd" d="M0.428589 1.28571C0.428589 0.944722 0.564048 0.617695 0.805166 0.376577C1.04628 0.135459 1.37331 0 1.7143 0H22.2857C22.6267 0 22.9537 0.135459 23.1949 0.376577C23.436 0.617695 23.5714 0.944722 23.5714 1.28571C23.5714 1.62671 23.436 1.95373 23.1949 2.19485C22.9537 2.43597 22.6267 2.57143 22.2857 2.57143H1.7143C1.37331 2.57143 1.04628 2.43597 0.805166 2.19485C0.564048 1.95373 0.428589 1.62671 0.428589 1.28571ZM0.428589 9C0.428589 8.65901 0.564048 8.33198 0.805166 8.09086C1.04628 7.84974 1.37331 7.71429 1.7143 7.71429H22.2857C22.6267 7.71429 22.9537 7.84974 23.1949 8.09086C23.436 8.33198 23.5714 8.65901 23.5714 9C23.5714 9.34099 23.436 9.66802 23.1949 9.90914C22.9537 10.1503 22.6267 10.2857 22.2857 10.2857H1.7143C1.37331 10.2857 1.04628 10.1503 0.805166 9.90914C0.564048 9.66802 0.428589 9.34099 0.428589 9ZM0.428589 16.7143C0.428589 16.3733 0.564048 16.0463 0.805166 15.8051C1.04628 15.564 1.37331 15.4286 1.7143 15.4286H22.2857C22.6267 15.4286 22.9537 15.564 23.1949 15.8051C23.436 16.0463 23.5714 16.3733 23.5714 16.7143C23.5714 17.0553 23.436 17.3823 23.1949 17.6234C22.9537 17.8645 22.6267 18 22.2857 18H1.7143C1.37331 18 1.04628 17.8645 0.805166 17.6234C0.564048 17.3823 0.428589 17.0553 0.428589 16.7143Z" fill="black"/>
</g>
</svg>
