<svg width="24" height="24" viewBox="0 0 24 24" fill="none" xmlns="http://www.w3.org/2000/svg">
<path d="M12 20C11.7348 20 11.4804 19.9177 11.2929 19.7712C11.1054 19.6247 11 19.426 11 19.2188V4.78125C11 4.57405 11.1054 4.37534 11.2929 4.22882C11.4804 4.08231 11.7348 4 12 4C12.2652 4 12.5196 4.08231 12.7071 4.22882C12.8946 4.37534 13 4.57405 13 4.78125V19.2188C13 19.426 12.8946 19.6247 12.7071 19.7712C12.5196 19.9177 12.2652 20 12 20Z" fill="white"/>
<path d="M19.2188 13H4.78125C4.57405 13 4.37534 12.8946 4.22882 12.7071C4.08231 12.5196 4 12.2652 4 12C4 11.7348 4.08231 11.4804 4.22882 11.2929C4.37534 11.1054 4.57405 11 4.78125 11H19.2188C19.426 11 19.6247 11.1054 19.7712 11.2929C19.9177 11.4804 20 11.7348 20 12C20 12.2652 19.9177 12.5196 19.7712 12.7071C19.6247 12.8946 19.426 13 19.2188 13Z" fill="white"/>
</svg>
