<svg width="18" height="18" viewBox="0 0 18 18" fill="none" xmlns="http://www.w3.org/2000/svg">
<path d="M12.125 6.7875L9.88123 9L12.125 11.2125C12.1874 11.271 12.2372 11.3416 12.2712 11.4201C12.3053 11.4986 12.3228 11.5832 12.3228 11.6688C12.3228 11.7543 12.3053 11.8389 12.2712 11.9174C12.2372 11.9959 12.1874 12.0665 12.125 12.125C12.0666 12.1829 11.9973 12.2288 11.9212 12.2599C11.845 12.291 11.7635 12.3067 11.6812 12.3063C11.5173 12.3056 11.3601 12.2405 11.2437 12.125L8.99998 9.88125L6.78748 12.125C6.67107 12.2405 6.51394 12.3056 6.34998 12.3063C6.26772 12.3067 6.18619 12.291 6.11004 12.2599C6.03389 12.2288 5.96463 12.1829 5.90623 12.125C5.78982 12.0079 5.72448 11.8495 5.72448 11.6844C5.72448 11.5193 5.78982 11.3609 5.90623 11.2438L8.11873 9L5.90623 6.7875C5.80384 6.66794 5.75033 6.51414 5.75641 6.35685C5.76249 6.19955 5.82769 6.05034 5.939 5.93903C6.05031 5.82772 6.19952 5.76251 6.35682 5.75643C6.51412 5.75036 6.66792 5.80386 6.78748 5.90625L8.99998 8.11875L11.2125 5.90625C11.2703 5.84634 11.3394 5.79841 11.4158 5.7652C11.4922 5.73198 11.5744 5.71414 11.6577 5.71269C11.741 5.71124 11.8237 5.72621 11.9012 5.75674C11.9787 5.78727 12.0494 5.83277 12.1094 5.89063C12.1693 5.94849 12.2172 6.01759 12.2504 6.09398C12.2836 6.17037 12.3015 6.25255 12.3029 6.33583C12.3044 6.41911 12.2894 6.50187 12.2589 6.57936C12.2283 6.65686 12.1828 6.72759 12.125 6.7875ZM15.1875 15.1875C13.9637 16.4111 12.4046 17.2444 10.7073 17.5819C9.01001 17.9195 7.25073 17.7462 5.65192 17.0839C4.05312 16.4216 2.68661 15.3001 1.72519 13.8611C0.763766 12.4222 0.25061 10.7306 0.25061 9C0.25061 7.26946 0.763766 5.57777 1.72519 4.13886C2.68661 2.69995 4.05312 1.57844 5.65192 0.916144C7.25073 0.25385 9.01001 0.0805191 10.7073 0.418067C12.4046 0.755616 13.9637 1.58888 15.1875 2.8125C16.0001 3.62503 16.6447 4.58966 17.0845 5.65132C17.5243 6.71298 17.7506 7.85086 17.7506 9C17.7506 10.1491 17.5243 11.287 17.0845 12.3487C16.6447 13.4103 16.0001 14.375 15.1875 15.1875ZM14.3062 3.69375C13.2563 2.64747 11.9199 1.93575 10.4657 1.64847C9.0116 1.36119 7.50493 1.51123 6.136 2.07965C4.76708 2.64807 3.59727 3.60938 2.77431 4.84218C1.95135 6.07499 1.51214 7.524 1.51214 9.00625C1.51214 10.4885 1.95135 11.9375 2.77431 13.1703C3.59727 14.4031 4.76708 15.3644 6.136 15.9329C7.50493 16.5013 9.0116 16.6513 10.4657 16.364C11.9199 16.0768 13.2563 15.365 14.3062 14.3188C15.0054 13.622 15.5602 12.794 15.9387 11.8824C16.3173 10.9708 16.5121 9.99336 16.5121 9.00625C16.5121 8.01915 16.3173 7.04175 15.9387 6.13011C15.5602 5.21848 15.0054 4.39053 14.3062 3.69375Z" fill="black"/>
</svg>
