<svg width="16" height="20" viewBox="0 0 16 20" fill="none" xmlns="http://www.w3.org/2000/svg">
<path d="M8.00008 12.3828C7.67699 12.3828 7.41414 12.12 7.41414 11.7969C7.41401 11.6816 7.44789 11.5689 7.51153 11.4729C7.57518 11.3768 7.66575 11.3017 7.77192 11.2568C8.0343 11.1457 8.34828 11.2405 8.63359 11.517C8.86602 11.7421 9.23696 11.7362 9.46211 11.5039C9.68731 11.2714 9.68141 10.9005 9.44902 10.6754C9.18449 10.4191 8.89043 10.2379 8.58602 10.1357V9.45312C8.58602 9.12953 8.32367 8.86719 8.00008 8.86719C7.67649 8.86719 7.41414 9.12953 7.41414 9.45312V10.1395C7.3807 10.1513 7.34762 10.164 7.31492 10.1777C6.99663 10.3121 6.72506 10.5374 6.53425 10.8254C6.34344 11.1135 6.24187 11.4514 6.24227 11.7969C6.24227 12.7661 7.03082 13.5547 8.00008 13.5547C8.32317 13.5547 8.58602 13.8175 8.58602 14.1406C8.58602 14.3862 8.43113 14.6076 8.20063 14.6915C7.89965 14.8011 7.5493 14.6525 7.23946 14.2835C7.03133 14.0357 6.66176 14.0036 6.41395 14.2117C6.16613 14.4198 6.13399 14.7894 6.34211 15.0372C6.65887 15.4143 7.02758 15.673 7.41418 15.8031V16.4844C7.41418 16.808 7.67653 17.0703 8.00012 17.0703C8.32371 17.0703 8.58606 16.808 8.58606 16.4844V15.7979C8.59129 15.7961 8.59653 15.7945 8.60172 15.7926C9.29324 15.5407 9.75789 14.8768 9.75789 14.1406C9.75789 13.1714 8.96934 12.3828 8.00008 12.3828Z" fill="black"/>
<path d="M13.4265 8.79918C12.7301 7.94242 11.934 7.25984 11.0601 6.76898C11.2066 6.59553 11.3183 6.39549 11.3891 6.1798C11.6753 5.30836 11.2573 4.2732 10.1904 3.93598L11.686 1.32797C11.8747 0.998828 11.7052 0.579609 11.3413 0.473828C10.2599 0.159414 9.13578 0 8 0C6.86422 0 5.74008 0.159414 4.65867 0.473828C4.29438 0.579727 4.12551 0.999219 4.31398 1.32797L5.80965 3.93602C4.74695 4.27152 4.32367 5.30516 4.61105 6.18027C4.68182 6.39583 4.79359 6.59568 4.9402 6.76883C4.06617 7.25969 3.27 7.94234 2.57352 8.79918C1.18129 10.512 0.382812 12.6724 0.382812 14.7266C0.382812 18.9879 3.78309 20 8 20C12.2199 20 15.6172 18.9862 15.6172 14.7266C15.6172 12.6724 14.8187 10.512 13.4265 8.79918ZM5.71469 1.41477C6.46569 1.25297 7.23177 1.17154 8 1.17188C8.76823 1.17154 9.53431 1.25297 10.2853 1.41477L8.99496 3.66484C8.33487 3.57259 7.66516 3.5726 7.00508 3.66488L5.71469 1.41477ZM6.0975 5.07406C7.1059 4.74328 8.1609 4.68059 9.18656 4.88562L9.19023 4.88633C9.43089 4.93464 9.66846 4.99724 9.90168 5.07379C10.2088 5.175 10.3766 5.50715 10.2759 5.81367C10.2409 5.92079 10.1757 6.01551 10.0882 6.08642C10.0006 6.15733 9.89439 6.2014 9.78234 6.21332C9.19812 6.03039 8.60223 5.9375 8 5.9375C7.39898 5.9375 6.80426 6.03 6.22117 6.21219C5.99043 6.18844 5.7968 6.03445 5.72426 5.81422C5.62344 5.50715 5.79125 5.17496 6.0975 5.07406ZM8 18.8359C3.42203 18.8359 1.55469 17.6398 1.55469 14.7266C1.55469 12.9632 2.27551 11.0237 3.48281 9.53836C4.75605 7.97199 6.36027 7.10938 8 7.10938C9.80492 7.10938 11.3836 8.14383 12.5172 9.53836C13.7245 11.0237 14.4453 12.9632 14.4453 14.7266C14.4453 17.6398 12.578 18.8359 8 18.8359Z" fill="black"/>
</svg>
