<svg width="20" height="20" viewBox="0 0 20 20" fill="none" xmlns="http://www.w3.org/2000/svg">
<g opacity="0.5" clip-path="url(#clip0_20_166)">
<path d="M18.7734 9.20312C18.332 9.20312 17.9766 9.55859 17.9766 10C17.9766 14.3984 14.3984 17.9766 10 17.9766C5.60156 17.9766 2.02344 14.3984 2.02344 10C2.02344 5.60156 5.60156 2.02344 10 2.02344C12.4023 2.02344 14.6289 3.08203 16.1367 4.90234H13.3828C12.9414 4.90234 12.5859 5.25781 12.5859 5.69922C12.5859 6.14062 12.9414 6.49609 13.3828 6.49609H17.8594C18.3008 6.49609 18.6562 6.14062 18.6562 5.69922V1.22656C18.6562 0.785156 18.3008 0.429688 17.8594 0.429688C17.418 0.429688 17.0625 0.785156 17.0625 1.22656V3.53125C15.2617 1.56641 12.7266 0.429688 10 0.429688C4.72266 0.429688 0.429688 4.72266 0.429688 10C0.429688 15.2773 4.72266 19.5703 10 19.5703C15.2773 19.5703 19.5703 15.2773 19.5703 10C19.5703 9.55859 19.2148 9.20312 18.7734 9.20312Z" fill="black"/>
</g>
<defs>
<clipPath id="clip0_20_166">
<rect width="20" height="20" fill="white"/>
</clipPath>
</defs>
</svg>
