<svg width="18" height="18" viewBox="0 0 18 18" fill="none" xmlns="http://www.w3.org/2000/svg">
<path d="M0.875 5.875C1.04076 5.875 1.19973 5.80915 1.31694 5.69194C1.43415 5.57473 1.5 5.41576 1.5 5.25V2.125C1.5 1.95924 1.56585 1.80027 1.68306 1.68306C1.80027 1.56585 1.95924 1.5 2.125 1.5H5.5625C5.72826 1.5 5.88723 1.43415 6.00444 1.31694C6.12165 1.19973 6.1875 1.04076 6.1875 0.875C6.1875 0.70924 6.12165 0.550268 6.00444 0.433058C5.88723 0.315848 5.72826 0.25 5.5625 0.25H2.125C1.62772 0.25 1.15081 0.447544 0.799175 0.799175C0.447544 1.15081 0.25 1.62772 0.25 2.125V5.25C0.25 5.41576 0.315848 5.57473 0.433058 5.69194C0.550268 5.80915 0.70924 5.875 0.875 5.875ZM15.875 0.25H12.4375C12.2717 0.25 12.1128 0.315848 11.9956 0.433058C11.8783 0.550268 11.8125 0.70924 11.8125 0.875C11.8125 1.04076 11.8783 1.19973 11.9956 1.31694C12.1128 1.43415 12.2717 1.5 12.4375 1.5H15.875C16.0408 1.5 16.1997 1.56585 16.3169 1.68306C16.4342 1.80027 16.5 1.95924 16.5 2.125V5.25C16.5 5.41576 16.5658 5.57473 16.6831 5.69194C16.8003 5.80915 16.9592 5.875 17.125 5.875C17.2908 5.875 17.4497 5.80915 17.5669 5.69194C17.6842 5.57473 17.75 5.41576 17.75 5.25V2.125C17.75 1.62772 17.5525 1.15081 17.2008 0.799175C16.8492 0.447544 16.3723 0.25 15.875 0.25ZM17.125 12.125C16.9592 12.125 16.8003 12.1908 16.6831 12.3081C16.5658 12.4253 16.5 12.5842 16.5 12.75V15.875C16.5 16.0408 16.4342 16.1997 16.3169 16.3169C16.1997 16.4342 16.0408 16.5 15.875 16.5H12.4375C12.2717 16.5 12.1128 16.5658 11.9956 16.6831C11.8783 16.8003 11.8125 16.9592 11.8125 17.125C11.8125 17.2908 11.8783 17.4497 11.9956 17.5669C12.1128 17.6842 12.2717 17.75 12.4375 17.75H15.875C16.3723 17.75 16.8492 17.5525 17.2008 17.2008C17.5525 16.8492 17.75 16.3723 17.75 15.875V12.75C17.75 12.5842 17.6842 12.4253 17.5669 12.3081C17.4497 12.1908 17.2908 12.125 17.125 12.125ZM5.5625 16.5H2.125C1.95924 16.5 1.80027 16.4342 1.68306 16.3169C1.56585 16.1997 1.5 16.0408 1.5 15.875V12.75C1.5 12.5842 1.43415 12.4253 1.31694 12.3081C1.19973 12.1908 1.04076 12.125 0.875 12.125C0.70924 12.125 0.550268 12.1908 0.433058 12.3081C0.315848 12.4253 0.25 12.5842 0.25 12.75V15.875C0.25 16.3723 0.447544 16.8492 0.799175 17.2008C1.15081 17.5525 1.62772 17.75 2.125 17.75H5.5625C5.72826 17.75 5.88723 17.6842 6.00444 17.5669C6.12165 17.4497 6.1875 17.2908 6.1875 17.125C6.1875 16.9592 6.12165 16.8003 6.00444 16.6831C5.88723 16.5658 5.72826 16.5 5.5625 16.5ZM17.125 8.375H0.875C0.70924 8.375 0.550268 8.44085 0.433058 8.55806C0.315848 8.67527 0.25 8.83424 0.25 9C0.25 9.16576 0.315848 9.32473 0.433058 9.44194C0.550268 9.55915 0.70924 9.625 0.875 9.625H17.125C17.2908 9.625 17.4497 9.55915 17.5669 9.44194C17.6842 9.32473 17.75 9.16576 17.75 9C17.75 8.83424 17.6842 8.67527 17.5669 8.55806C17.4497 8.44085 17.2908 8.375 17.125 8.375Z" fill="black"/>
</svg>
