<svg width="268" height="268" viewBox="0 0 268 268" fill="none" xmlns="http://www.w3.org/2000/svg">
<path d="M9.6875 86.1875C12.2236 86.1875 14.6559 85.18 16.4492 83.3867C18.2425 81.5934 19.25 79.1611 19.25 76.625V28.8125C19.25 26.2764 20.2575 23.8441 22.0508 22.0508C23.8441 20.2575 26.2764 19.25 28.8125 19.25H81.4062C83.9424 19.25 86.3746 18.2425 88.168 16.4492C89.9613 14.6559 90.9688 12.2236 90.9688 9.6875C90.9688 7.15137 89.9613 4.71911 88.168 2.92579C86.3746 1.13247 83.9424 0.125 81.4062 0.125H28.8125C21.2041 0.125 13.9073 3.14743 8.52738 8.52738C3.14743 13.9073 0.125 21.2041 0.125 28.8125V76.625C0.125 79.1611 1.13247 81.5934 2.92579 83.3867C4.71911 85.18 7.15137 86.1875 9.6875 86.1875ZM239.188 0.125H186.594C184.058 0.125 181.625 1.13247 179.832 2.92579C178.039 4.71911 177.031 7.15137 177.031 9.6875C177.031 12.2236 178.039 14.6559 179.832 16.4492C181.625 18.2425 184.058 19.25 186.594 19.25H239.188C241.724 19.25 244.156 20.2575 245.949 22.0508C247.743 23.8441 248.75 26.2764 248.75 28.8125V76.625C248.75 79.1611 249.757 81.5934 251.551 83.3867C253.344 85.18 255.776 86.1875 258.312 86.1875C260.849 86.1875 263.281 85.18 265.074 83.3867C266.868 81.5934 267.875 79.1611 267.875 76.625V28.8125C267.875 21.2041 264.853 13.9073 259.473 8.52738C254.093 3.14743 246.796 0.125 239.188 0.125ZM258.312 181.812C255.776 181.812 253.344 182.82 251.551 184.613C249.757 186.407 248.75 188.839 248.75 191.375V239.188C248.75 241.724 247.743 244.156 245.949 245.949C244.156 247.743 241.724 248.75 239.188 248.75H186.594C184.058 248.75 181.625 249.757 179.832 251.551C178.039 253.344 177.031 255.776 177.031 258.312C177.031 260.849 178.039 263.281 179.832 265.074C181.625 266.868 184.058 267.875 186.594 267.875H239.188C246.796 267.875 254.093 264.853 259.473 259.473C264.853 254.093 267.875 246.796 267.875 239.188V191.375C267.875 188.839 266.868 186.407 265.074 184.613C263.281 182.82 260.849 181.812 258.312 181.812ZM81.4062 248.75H28.8125C26.2764 248.75 23.8441 247.743 22.0508 245.949C20.2575 244.156 19.25 241.724 19.25 239.188V191.375C19.25 188.839 18.2425 186.407 16.4492 184.613C14.6559 182.82 12.2236 181.812 9.6875 181.812C7.15137 181.812 4.71911 182.82 2.92579 184.613C1.13247 186.407 0.125 188.839 0.125 191.375V239.188C0.125 246.796 3.14743 254.093 8.52738 259.473C13.9073 264.853 21.2041 267.875 28.8125 267.875H81.4062C83.9424 267.875 86.3746 266.868 88.168 265.074C89.9613 263.281 90.9688 260.849 90.9688 258.312C90.9688 255.776 89.9613 253.344 88.168 251.551C86.3746 249.757 83.9424 248.75 81.4062 248.75ZM258.312 124.438H9.6875C7.15137 124.438 4.71911 125.445 2.92579 127.238C1.13247 129.032 0.125 131.464 0.125 134C0.125 136.536 1.13247 138.968 2.92579 140.762C4.71911 142.555 7.15137 143.562 9.6875 143.562H258.312C260.849 143.562 263.281 142.555 265.074 140.762C266.868 138.968 267.875 136.536 267.875 134C267.875 131.464 266.868 129.032 265.074 127.238C263.281 125.445 260.849 124.438 258.312 124.438Z" fill="black"/>
</svg>
