<svg width="18" height="20" viewBox="0 0 18 20" fill="none" xmlns="http://www.w3.org/2000/svg">
<path d="M17.3811 5.14965C17.3708 4.60967 17.361 4.09957 17.361 3.60608C17.361 3.42041 17.2872 3.24235 17.1559 3.11107C17.0247 2.97978 16.8466 2.90603 16.6609 2.90603C13.667 2.90603 11.3876 2.04562 9.48756 0.198229C9.3569 0.0711192 9.18181 0 8.99953 0C8.81724 0 8.64215 0.0711192 8.5115 0.198229C6.61165 2.04562 4.33256 2.90603 1.33887 2.90603C1.1532 2.90603 0.975139 2.97978 0.843854 3.11107C0.712569 3.24235 0.638814 3.42041 0.638814 3.60608C0.638814 4.09966 0.629107 4.60995 0.618746 5.15002C0.522792 10.1751 0.39137 17.0571 8.77024 19.9614C8.91873 20.0129 9.08023 20.0129 9.22872 19.9614C17.6082 17.0571 17.477 10.1748 17.3811 5.14965ZM8.99957 18.5571C1.81359 15.9467 1.92224 10.2282 2.01866 5.17671C2.02445 4.87355 2.03005 4.57971 2.03397 4.29166C4.83791 4.17331 7.08013 3.32363 8.99957 1.65154C10.9192 3.32363 13.1618 4.1734 15.9659 4.29166C15.9698 4.57962 15.9754 4.87327 15.9812 5.17625C16.0776 10.2279 16.1861 15.9466 8.99957 18.5571Z" fill="black"/>
<path d="M11.4102 7.56825L8.03142 10.9469L6.58959 9.50506C6.45755 9.37742 6.28066 9.30677 6.09703 9.30834C5.91339 9.3099 5.73772 9.38354 5.60788 9.5134C5.47803 9.64326 5.4044 9.81894 5.40286 10.0026C5.40131 10.1862 5.47198 10.3631 5.59962 10.4951L7.53643 12.4319C7.60137 12.497 7.67853 12.5486 7.76347 12.5838C7.84842 12.619 7.93948 12.637 8.03142 12.6369C8.12336 12.637 8.21441 12.619 8.29936 12.5838C8.3843 12.5486 8.46146 12.497 8.5264 12.4319L12.4001 8.55831C12.4651 8.49332 12.5167 8.41616 12.5519 8.33123C12.5871 8.2463 12.6052 8.15527 12.6052 8.06334C12.6053 7.97141 12.5872 7.88038 12.552 7.79544C12.5168 7.71051 12.4652 7.63334 12.4002 7.56834C12.2689 7.43706 12.0909 7.3633 11.9052 7.36328C11.7196 7.36326 11.5415 7.43699 11.4102 7.56825Z" fill="black"/>
</svg>
