<svg width="50" height="50" viewBox="0 0 50 50" fill="none" xmlns="http://www.w3.org/2000/svg">
<circle cx="25" cy="25" r="25" fill="#F76457" fill-opacity="0.1"/>
<path d="M32.6035 19.0654V15.1708C32.6035 14.966 32.4375 14.7999 32.2326 14.7999H30.749C30.5441 14.7999 30.3781 14.966 30.3781 15.1708V17.3854C30.3781 17.4915 30.338 17.5958 30.2601 17.6678C30.1364 17.7821 29.957 17.7977 29.8181 17.7154L25.1852 14.97C25.1284 14.9363 25.0637 14.9184 24.9977 14.9181C24.9317 14.9179 24.8669 14.9352 24.8098 14.9683L14.0572 21.2117C14.001 21.2443 13.9544 21.2911 13.922 21.3474C13.8896 21.4037 13.8726 21.4675 13.8726 21.5325V22.2181C13.8726 22.423 14.0386 22.589 14.2435 22.589H15.5417C15.7465 22.589 15.9126 22.7551 15.9126 22.96V34.8291C15.9126 35.0339 16.0786 35.2 16.2835 35.2H33.7163C33.9211 35.2 34.0872 35.0339 34.0872 34.8291V22.9599C34.0872 22.7551 34.2533 22.589 34.4581 22.589H35.7563C35.9611 22.589 36.1272 22.423 36.1272 22.2181V21.5331C36.1272 21.4681 36.1101 21.4042 36.0776 21.3478C36.0451 21.2915 35.9984 21.2447 35.9421 21.2121L32.7886 19.3864C32.7323 19.3538 32.6856 19.307 32.6531 19.2507C32.6206 19.1943 32.6035 19.1304 32.6035 19.0654ZM30.4581 26.0008L23.0399 33.6045C23.0053 33.6399 22.964 33.6681 22.9184 33.6873C22.8728 33.7065 22.8238 33.7164 22.7743 33.7164C22.7106 33.7164 22.6479 33.6999 22.5924 33.6686C22.446 33.5862 22.3733 33.4155 22.4153 33.2527L23.7793 27.9672H19.8071C19.7394 27.9672 19.673 27.9487 19.615 27.9136C19.5571 27.8785 19.5099 27.8282 19.4785 27.7682C19.4471 27.7082 19.4327 27.6407 19.437 27.5731C19.4412 27.5055 19.4639 27.4404 19.5025 27.3848L24.1389 20.7084C24.173 20.6592 24.2186 20.619 24.2716 20.5913C24.3247 20.5635 24.3836 20.549 24.4435 20.549H28.8944C28.9621 20.549 29.0285 20.5675 29.0864 20.6026C29.1443 20.6376 29.1916 20.6878 29.223 20.7478C29.2544 20.8077 29.2688 20.8752 29.2646 20.9427C29.2605 21.0103 29.2379 21.0754 29.1994 21.1311L26.2642 25.3709H30.1926C30.2656 25.3709 30.3369 25.3924 30.3977 25.4327C30.4585 25.4731 30.5061 25.5305 30.5344 25.5977C30.5628 25.665 30.5706 25.7391 30.5571 25.8108C30.5435 25.8825 30.5091 25.9486 30.4581 26.0008Z" fill="#F76457"/>
<path d="M25.2275 25.9137C25.1961 25.8538 25.1817 25.7863 25.1858 25.7188C25.19 25.6512 25.2126 25.5861 25.2511 25.5304L28.1864 21.2906H24.6373L20.5161 27.2252H24.2579C24.3145 27.2252 24.3703 27.2382 24.4212 27.2631C24.472 27.288 24.5164 27.3242 24.5511 27.369C24.5857 27.4137 24.6097 27.4658 24.6211 27.5213C24.6326 27.5767 24.6312 27.634 24.617 27.6888L23.4814 32.0892L29.3124 26.1125H25.5561C25.4884 26.1125 25.422 26.094 25.3641 26.0589C25.3062 26.0239 25.2589 25.9737 25.2275 25.9137Z" fill="#F76457"/>
</svg>
