<svg width="214" height="69" viewBox="0 0 214 69" fill="none" xmlns="http://www.w3.org/2000/svg">
<path d="M39.7157 51.8877C41.0438 56.0298 42.3445 60.0877 43.6452 64.141C33.2941 68.2057 16.9529 66.2234 6.82084 53.1895C-3.30433 40.1647 -2.01729 21.045 9.74634 9.74757C22.1695 -2.18484 41.0483 -3.02009 54.0328 7.75846C67.0881 18.5985 68.795 36.0795 62.2639 48.1166C60.8993 43.8607 59.5712 39.7209 58.1746 35.3648C55.936 38.2802 53.8069 41.0545 51.6892 43.8129C51.1484 43.6877 50.8814 43.2985 50.4319 42.9867C53.4258 37.272 53.8708 31.3661 51.3994 25.3783C49.7997 21.5002 47.1686 18.3982 43.5722 16.1792C36.0782 11.5546 26.1949 12.4081 19.8327 18.0818C12.8658 24.2972 11.3415 33.9037 14.8055 41.405C16.9597 46.0683 20.4489 49.4275 25.1885 51.4416C29.9214 53.4535 34.7569 53.5559 39.7157 51.8877Z" fill="white"/>
<path d="M86.1837 24.3496C87.2105 23.107 87.9522 22.0168 88.9563 21.1634C92.11 18.4824 95.8205 17.6107 99.8687 17.7154C109.275 17.9566 115.699 24.1266 117.983 33.3871C119.708 40.3786 119.38 47.2904 116.721 54.0293C113.342 62.6002 104.389 67.4524 95.2956 65.7432C90.8412 64.9057 87.4091 62.7618 85.4397 58.5697C85.3804 58.4422 85.2777 58.333 84.9445 58.2214C84.9445 59.0203 84.981 59.8214 84.9377 60.6179C84.6867 65.2789 81.3162 66.4374 77.8886 65.9822C75.1251 65.6158 73.5163 63.7655 73.384 60.9798C73.3543 60.3357 73.3338 59.6917 73.3338 59.0453C73.3315 41.8624 73.3315 24.6773 73.3292 7.49445C73.3292 5.65554 73.4365 3.86443 74.7235 2.3578C76.3163 0.496132 79.5385 -0.238975 82.2951 0.687306C84.6524 1.47931 86.1312 3.47753 86.154 6.14713C86.2019 11.5705 86.1768 16.9962 86.1814 22.4196C86.1859 22.9545 86.1837 23.4848 86.1837 24.3496ZM106.069 42.7296C106.117 39.5706 105.752 36.9989 104.891 34.5C103.429 30.2509 100.41 27.9273 96.1536 27.7839C91.8201 27.6382 88.687 29.6478 87.028 33.8832C85.0814 38.856 85.0792 43.9221 86.6058 49.0224C87.7742 52.9255 90.7362 55.6019 94.7206 55.9661C98.7665 56.337 101.891 54.6574 103.937 51.1571C105.549 48.4079 106.044 45.3514 106.069 42.7296Z" fill="white"/>
<path d="M192.278 17.6927C197.693 17.8019 202.951 18.603 207.661 21.4934C210.084 22.9795 211.971 24.8981 211.707 28.0729C211.538 30.1212 210.572 31.7007 208.713 32.5792C206.873 33.4463 204.998 33.3256 203.311 32.1376C202.198 31.3547 201.157 30.4649 200.126 29.575C197.78 27.554 194.98 27.0875 192.027 27.224C190.669 27.2878 189.304 27.438 188.026 28.0047C186.698 28.5941 185.728 29.4248 185.644 31.0088C185.553 32.693 186.456 33.7034 187.862 34.368C189.731 35.251 191.773 35.5537 193.761 36.0248C198.186 37.074 202.64 37.9775 206.782 39.994C217.014 44.9759 215.177 56.774 208.653 61.6262C204.632 64.6167 200.055 65.8957 195.142 66.0345C189.088 66.2075 183.262 65.2175 177.979 62.0426C175.898 60.7909 174.118 59.216 173.191 56.8923C172.612 55.4381 172.523 53.9223 173.047 52.4407C174.154 49.316 177.817 48.1689 180.772 49.9828C182.18 50.8476 183.234 52.1085 184.387 53.2555C188.042 56.8923 192.392 57.7913 197.282 56.5123C198.4 56.2187 199.379 55.6315 200.148 54.7462C201.664 53.0029 201.276 50.4334 199.27 49.2864C197.435 48.2349 195.34 47.9277 193.327 47.4019C189.405 46.3755 185.398 45.6609 181.589 44.2203C177.187 42.5543 173.885 39.8551 172.956 34.9711C171.726 28.5031 174.649 22.8703 180.665 20.0596C184.343 18.3367 188.232 17.6471 192.278 17.6927Z" fill="white"/>
<path d="M148.69 27.3355C147.037 27.2013 145.547 27.4198 144.094 26.976C142.193 26.3956 141.351 25.1871 141.376 22.9317C141.399 20.781 142.263 19.5885 144.215 19.1151C144.911 18.9467 145.634 18.8647 146.351 18.8169C147.067 18.7669 147.79 18.8056 148.468 18.8056C148.82 18.4323 148.678 18.034 148.68 17.6745C148.701 15.2484 148.651 12.8177 148.719 10.3939C148.817 6.95053 151.124 4.70651 154.582 4.58817C158.308 4.46299 160.522 5.90818 161.35 8.98971C161.56 9.77261 161.528 10.5692 161.533 11.3612C161.546 13.7827 161.537 16.2042 161.537 18.6144C162.137 18.9535 162.717 18.7919 163.267 18.801C165.013 18.8306 166.765 18.7031 168.477 19.1879C170.352 19.7205 171.297 21.0154 171.299 23.0751C171.302 25.0893 170.311 26.3956 168.44 26.9236C167.178 27.2787 165.893 27.306 164.6 27.2878C163.621 27.2764 162.639 27.2855 161.729 27.2855C161.441 27.7589 161.539 28.148 161.539 28.5167C161.533 36.3685 161.535 44.218 161.537 52.0698C161.537 55.1809 162.388 56.0139 165.551 56.023C165.932 56.023 166.311 56.0252 166.692 56.0366C169.316 56.1163 170.681 57.0835 171.174 59.2024C171.699 61.4578 170.683 63.6358 168.614 64.7487C167.317 65.4451 165.919 65.7637 164.479 65.923C161.27 66.2758 158.096 66.1074 155.027 65.0536C151.074 63.6972 148.742 60.2584 148.717 55.6087C148.669 46.6577 148.694 37.7067 148.69 28.7557C148.69 28.3073 148.69 27.859 148.69 27.3355Z" fill="white"/>
<path d="M124.733 41.867C124.733 36.1386 124.733 30.4102 124.733 24.6818C124.733 23.4665 124.797 22.258 125.242 21.1064C126.034 19.0468 127.627 18.0522 129.745 17.8087C131.109 17.6517 132.476 17.6403 133.809 18.0499C135.707 18.6326 136.896 19.8798 137.36 21.8211C137.572 22.7132 137.668 23.6122 137.665 24.5271C137.663 36.0225 137.665 47.5157 137.665 59.0112C137.665 59.125 137.668 59.2388 137.665 59.3525C137.622 61.6626 137.3 63.9271 135.034 65.1446C132.458 66.5284 129.731 66.4874 127.182 65.0627C125.45 64.0955 124.902 62.3089 124.786 60.4177C124.724 59.3958 124.74 58.3694 124.738 57.3452C124.733 52.1858 124.736 47.0264 124.733 41.867Z" fill="white"/>
<path d="M57.4603 39.7413C60.6117 49.5913 63.6878 59.2137 66.7662 68.8361C66.6727 68.8908 66.5814 68.9431 66.4878 68.9977C61.4561 65.1697 56.4243 61.344 51.3537 57.4886C49.43 59.628 47.9855 62.1473 45.8039 64.3345C42.632 54.4071 39.5604 44.7961 36.3907 34.871C37.7668 35.8928 38.9283 36.7349 40.067 37.6043C43.7273 40.3922 47.4036 43.1597 51.016 46.0068C51.8512 46.6646 52.2346 46.503 52.7914 45.7406C54.1241 43.9153 55.5252 42.1401 56.9035 40.349C57.0176 40.2056 57.1522 40.0782 57.4603 39.7413Z" fill="#F58E20"/>
<path d="M131.328 0.00229072C135.036 0.0864981 137.966 3.09748 137.882 6.73433C137.793 10.5601 134.799 13.3844 130.933 13.2889C127.257 13.1978 124.43 10.1914 124.505 6.4544C124.58 2.79479 127.622 -0.0819167 131.328 0.00229072Z" fill="white"/>
</svg>
