<svg width="20" height="20" viewBox="0 0 20 20" fill="none" xmlns="http://www.w3.org/2000/svg">
<path d="M19.5781 7.11072C19.5808 7.09835 19.5838 7.08639 19.5864 7.07364L19.5657 7.06951C19.0939 5.52248 18.247 4.10502 17.071 2.92895C15.1822 1.0402 12.671 0 9.99992 0C7.32884 0 4.81761 1.0402 2.92886 2.92899C1.04012 4.81773 0 7.32897 0 10C0 12.6711 1.04016 15.1824 2.92886 17.0711C4.81756 18.9598 7.3288 20 9.99992 20C12.671 20 15.1822 18.9598 17.071 17.0711C18.9598 15.1824 20 12.6711 20 10C19.9999 9.00688 19.8558 8.03588 19.5781 7.11072ZM14.3831 1.94508C15.0887 2.33032 15.747 2.81111 16.3415 3.38136C16.286 3.53574 16.1918 3.70553 16.0454 3.70553L16.0385 3.7054C15.9129 3.70086 15.7673 3.65307 15.6131 3.60253C15.3795 3.52594 15.1147 3.43903 14.8139 3.46332C14.5195 3.48694 14.2671 3.61124 14.0445 3.72086C13.8358 3.82361 13.6556 3.91248 13.5264 3.88019C13.4037 3.84961 13.2752 3.69507 13.1434 3.52574C13.0848 3.45049 13.0486 3.39653 13.0352 3.36486C13.0509 3.33865 13.0829 3.29728 13.0999 3.27528C13.2658 3.06053 13.5461 2.78566 13.8171 2.51982C14.0126 2.32799 14.212 2.13203 14.3831 1.94508ZM11.4527 0.947788C11.4042 1.25808 11.27 1.66708 11.1485 1.81737C11.0142 1.98341 10.7768 2.06007 10.6193 1.98837C10.4604 1.91595 10.3346 1.68966 10.2829 1.38304C10.249 1.18204 10.1821 1.00041 10.1115 0.834747C10.5607 0.839881 11.009 0.877661 11.4527 0.947788ZM3.51815 3.51824C4.60536 2.43103 5.91764 1.65074 7.34984 1.22049C7.5228 1.78916 7.73343 2.32191 7.93884 2.82536C8.09609 3.2109 8.27438 3.64782 8.23413 4.04323C8.21872 4.19465 8.18026 4.38827 8.08438 4.45098C8.00101 4.50556 7.83363 4.51952 7.65651 4.53431C7.36451 4.55869 7.00114 4.58902 6.67014 4.82144C6.59943 4.87106 6.53376 4.9224 6.47031 4.97194C6.33393 5.07848 6.2051 5.17906 6.08497 5.21273C5.96622 5.24606 5.81323 5.2286 5.63598 5.2084C5.53418 5.19681 5.42889 5.18485 5.31748 5.18119C4.96381 5.16819 4.15765 5.3381 3.80665 5.79652C3.63319 6.02306 3.58324 6.29689 3.66598 6.5676C3.72728 6.76822 3.85861 6.90818 3.97907 7.01868C4.54169 7.53451 5.31385 7.89984 6.09747 8.02109C6.20956 8.03842 6.31806 8.05167 6.42301 8.06455C6.99764 8.13488 7.28351 8.18601 7.50084 8.57763C7.55497 8.67517 7.59855 8.79063 7.64472 8.91288C7.69784 9.05367 7.7528 9.19925 7.83284 9.346C8.07051 9.78196 8.47117 10.0373 8.87809 10.0147C9.18184 9.99717 9.40617 9.83863 9.58642 9.71129C9.66958 9.65254 9.74813 9.59704 9.81533 9.56904C9.99596 9.49363 10.2717 9.56059 10.5526 9.74783C10.7453 9.87629 10.9945 10.0888 11.0878 10.3716C11.158 10.5843 11.1095 10.8306 10.9732 10.9457L9.74867 11.9916C9.35434 12.3284 8.93242 12.7374 8.91821 13.3306C8.91371 13.5182 8.95242 13.6983 8.98655 13.8572C9.01046 13.9684 9.05042 14.1546 9.02896 14.2032C9.0065 14.2232 8.9015 14.2489 8.8388 14.2643C8.7283 14.2914 8.60309 14.322 8.47584 14.3863C7.85893 14.6978 7.8013 15.4358 7.76313 15.9242C7.73547 16.2785 7.60405 16.5767 7.47009 16.5889C7.36114 16.5994 7.20726 16.411 7.1538 16.2022C7.12064 16.0727 7.10505 15.9283 7.08855 15.7754C7.0648 15.5551 7.03785 15.3054 6.94939 15.0601C6.83539 14.7442 6.63693 14.4837 6.46185 14.2539C6.28989 14.0282 6.12743 13.815 6.07497 13.5932C6.03568 13.4271 6.05152 13.2274 6.06835 13.016C6.08977 12.7469 6.11402 12.4418 6.02864 12.1312C5.90731 11.6898 5.60664 11.3744 5.34135 11.096C5.16714 10.9133 5.0026 10.7407 4.90485 10.5542C4.78702 10.3293 4.80165 10.0937 4.8186 9.82079C4.83465 9.56217 4.85285 9.269 4.7499 8.96738C4.64706 8.66617 4.40398 8.49217 4.22394 8.36326C3.69482 7.98427 3.2028 7.556 2.75449 7.08418C2.51541 6.83247 2.2817 6.55756 2.19116 6.25327C2.16749 6.17372 2.15112 6.11364 2.13824 6.06664C2.08103 5.85714 2.04732 5.78231 1.92712 5.64927C2.34557 4.87535 2.87861 4.15777 3.51815 3.51824ZM9.99992 19.1667C7.55143 19.1667 5.24948 18.2132 3.51815 16.4818C1.78683 14.7505 0.83333 12.4485 0.83333 10C0.83333 8.84188 1.04695 7.71659 1.45504 6.66885C1.61249 7.05764 1.87987 7.3733 2.15028 7.65801C2.63569 8.16879 3.16845 8.63237 3.7414 9.04255C3.82236 9.10055 3.94478 9.18817 3.96128 9.23654C4.0109 9.38196 3.99977 9.56142 3.9869 9.76913C3.9664 10.0992 3.94094 10.5099 4.16677 10.9409C4.31877 11.2309 4.53198 11.4546 4.73815 11.6709C4.96419 11.908 5.1594 12.1129 5.2251 12.352C5.27169 12.5215 5.25515 12.7297 5.23765 12.9499C5.21748 13.2038 5.1946 13.4914 5.26402 13.7849C5.35723 14.1791 5.59193 14.4871 5.79898 14.7589C5.95118 14.9587 6.09493 15.1474 6.16547 15.3429C6.22002 15.4941 6.23943 15.6741 6.25997 15.8647C6.27889 16.0401 6.29847 16.2214 6.34647 16.4088C6.47881 16.9258 6.89826 17.4228 7.45822 17.4228C7.48701 17.4228 7.51626 17.4215 7.5458 17.4188C8.12759 17.3657 8.52917 16.8178 8.59388 15.9891C8.61888 15.6688 8.65313 15.2302 8.85138 15.1302C8.89371 15.1088 8.9633 15.0917 9.03696 15.0737C9.20709 15.0321 9.44 14.975 9.62492 14.7856C9.96371 14.4387 9.86983 14.0015 9.80125 13.6823C9.77446 13.5575 9.74913 13.4396 9.75125 13.3506C9.75725 13.1007 10.0324 12.8452 10.2898 12.6253L11.5129 11.5807C11.911 11.244 12.0582 10.6532 11.8792 10.1105C11.7464 9.70808 11.4475 9.34292 11.0147 9.05438C10.4862 8.70213 9.94637 8.61171 9.49479 8.79971C9.34242 8.86317 9.2165 8.95217 9.10538 9.03067C9.00225 9.10355 8.89563 9.17892 8.83 9.18267C8.76455 9.18688 8.64742 9.09938 8.56438 8.94709C8.51196 8.85092 8.46938 8.73805 8.42426 8.61855C8.36959 8.47371 8.31305 8.32397 8.22942 8.17322C7.79643 7.39297 7.12051 7.3103 6.52418 7.2373C6.42568 7.22526 6.32385 7.2128 6.22481 7.19747C5.59977 7.10085 4.98648 6.81176 4.54223 6.40447C4.48619 6.3531 4.46765 6.32968 4.46161 6.3196C4.46114 6.31781 4.46075 6.316 4.46044 6.31418C4.51548 6.18614 5.0146 6.00602 5.29002 6.01402C5.36789 6.0166 5.45227 6.02622 5.5416 6.03639C5.77235 6.06268 6.03385 6.09252 6.30981 6.01514C6.58839 5.93706 6.79814 5.77323 6.98322 5.62873C7.04101 5.58356 7.09564 5.54094 7.14901 5.50344C7.29534 5.40069 7.49484 5.38406 7.72584 5.36477C8.1828 5.32664 8.94763 5.26281 9.06321 4.12765C9.1245 3.52553 8.89492 2.96278 8.71046 2.51061C8.5178 2.03832 8.32026 1.54033 8.15897 1.01762C8.50765 0.947064 8.86013 0.896785 9.21463 0.867038C9.23459 0.912746 9.25467 0.957913 9.27467 1.00229C9.356 1.18287 9.43284 1.35341 9.46129 1.52174C9.56204 2.11878 9.85063 2.55386 10.2738 2.7467C10.4253 2.81574 10.5887 2.84882 10.7536 2.84882C11.1395 2.84882 11.5329 2.66745 11.7966 2.34128C12.0087 2.07874 12.1938 1.56854 12.2684 1.11495C12.7221 1.23002 13.1662 1.3801 13.5968 1.56383C13.4815 1.68174 13.3567 1.80424 13.2337 1.92487C12.9425 2.21045 12.6414 2.5057 12.4405 2.76582C12.361 2.86878 12.2408 3.02432 12.2068 3.23953C12.1491 3.60498 12.3766 3.89719 12.4859 4.03761C12.6558 4.25598 12.9127 4.58598 13.3249 4.68881C13.4139 4.71098 13.5003 4.72065 13.5841 4.72061C13.9007 4.72061 14.1792 4.58344 14.4126 4.46848C14.5835 4.38436 14.7449 4.3049 14.8806 4.29398C15.0144 4.28307 15.1716 4.33477 15.3535 4.3944C15.5464 4.45765 15.7651 4.52931 16.0084 4.53815C16.3978 4.55252 16.725 4.36682 16.9498 4.02202C17.7336 4.93031 18.3224 5.96873 18.6955 7.08564C18.6342 7.12997 18.5094 7.1358 18.2164 7.13947C18.0891 7.14105 17.9448 7.14285 17.791 7.15468C17.3627 7.18755 17.0314 7.06489 16.6478 6.92276C16.3903 6.82735 16.1241 6.72868 15.8058 6.66543C15.0038 6.50581 14.175 6.95401 13.6944 7.80693C13.6071 7.96201 12.8567 9.34396 13.4119 10.1086C13.6193 10.3942 13.9129 10.5703 14.1489 10.7118C14.4836 10.9124 14.8296 11.1198 15.2129 11.2745C15.295 11.3076 15.3779 11.3382 15.458 11.3677C15.7496 11.4754 16.0249 11.577 16.1599 11.7618C16.2729 11.9164 16.3103 12.1611 16.2744 12.5099C16.2471 12.7746 16.1485 13.0437 16.044 13.3284C15.8098 13.9672 15.5183 14.7621 16.2016 15.543C16.3965 15.7656 16.6305 15.9352 16.8893 16.0466C16.7581 16.196 16.6222 16.3411 16.4818 16.4818C14.7504 18.2132 12.4484 19.1667 9.99992 19.1667ZM17.4454 15.3498C17.2077 15.3072 16.9971 15.1866 16.8287 14.9942C16.4867 14.6034 16.5927 14.2526 16.8264 13.6154C16.9439 13.295 17.0653 12.9637 17.1033 12.5954C17.1613 12.0322 17.0729 11.5988 16.8328 11.2702C16.5495 10.8824 16.1229 10.7249 15.7466 10.586C15.6687 10.5573 15.5952 10.5301 15.5247 10.5017C15.202 10.3715 14.8986 10.1897 14.5774 9.99717C14.3887 9.88404 14.1936 9.76713 14.0862 9.61913C13.9541 9.43721 14.1165 8.75534 14.4204 8.21609C14.6487 7.81105 15.106 7.37618 15.6433 7.48284C15.8966 7.53318 16.1208 7.61626 16.3583 7.70422C16.7939 7.86563 17.2445 8.03292 17.855 7.98563C17.982 7.97588 18.1065 7.9743 18.2268 7.97276C18.4433 7.97005 18.6944 7.96676 18.9238 7.89205C19.0854 8.58305 19.1669 9.29038 19.1666 10C19.1666 11.9472 18.563 13.8012 17.4454 15.3498Z" fill="black"/>
</svg>
