<svg width="40" height="48" viewBox="0 0 40 48" fill="none" xmlns="http://www.w3.org/2000/svg">
<path d="M8.18762 12.1875C8.18762 9.85121 8.88041 7.56739 10.1784 5.62483C11.4764 3.68228 13.3212 2.16824 15.4797 1.27418C17.6381 0.380118 20.0132 0.146191 22.3046 0.601979C24.596 1.05777 26.7008 2.1828 28.3528 3.83481C30.0048 5.48681 31.1299 7.5916 31.5856 9.883C32.0414 12.1744 31.8075 14.5495 30.9134 16.708C30.0194 18.8664 28.5054 20.7113 26.5628 22.0092C24.6202 23.3072 22.3364 24 20.0001 24C16.8683 23.9964 13.8659 22.7508 11.6514 20.5363C9.43687 18.3218 8.19119 15.3193 8.18762 12.1875ZM39.7439 41.4909C39.503 40.4694 39.1698 39.472 38.7482 38.5108C35.7394 31.6427 28.5574 27.375 20.0001 27.375C10.2852 27.375 2.36912 32.9843 0.300247 41.3306C0.115498 42.0778 0.103092 42.8573 0.26397 43.61C0.424847 44.3627 0.754795 45.0689 1.22885 45.6753C1.70291 46.2817 2.30866 46.7723 3.00029 47.1101C3.69191 47.4479 4.4513 47.624 5.221 47.625H34.786C35.5591 47.6268 36.3225 47.4523 37.0181 47.1149C37.7138 46.7774 38.3233 46.2859 38.8006 45.6776C39.265 45.097 39.5913 44.4183 39.7547 43.693C39.9181 42.9677 39.9144 42.2146 39.7439 41.4909Z" fill="#149C68"/>
</svg>
