<svg width="14" height="14" viewBox="0 0 14 14" fill="none" xmlns="http://www.w3.org/2000/svg">
<mask id="mask0_5_188" style="mask-type:luminance" maskUnits="userSpaceOnUse" x="0" y="0" width="14" height="14">
<path d="M13.5 13.5V0.5H0.5V13.5H13.5Z" fill="white" stroke="white"/>
</mask>
<g mask="url(#mask0_5_188)">
<path d="M6.99998 13.5898C3.36636 13.5898 0.410156 10.6336 0.410156 7.00002C0.410156 3.3664 3.36636 0.410197 6.99998 0.410197C10.6336 0.410197 13.5898 3.3664 13.5898 7.00002C13.5898 10.6336 10.6336 13.5898 6.99998 13.5898Z" stroke="#84878F" stroke-miterlimit="10"/>
<path d="M6.99999 13.5898C8.60052 13.5898 10.3906 10.6336 10.3906 7.00002C10.3906 3.3664 8.60052 0.410197 6.99999 0.410197M6.99999 13.5898C5.39946 13.5898 3.60938 10.6336 3.60938 7.00002C3.60938 3.3664 5.39946 0.410197 6.99999 0.410197" stroke="#84878F" stroke-miterlimit="10"/>
<path d="M0.410156 7H13.5898" stroke="#84878F" stroke-miterlimit="10"/>
<path d="M2.15479 2.53831C3.35982 3.31049 5.08592 3.85529 6.99997 3.85529C8.91409 3.85529 10.6402 3.31046 11.8453 2.53825" stroke="#84878F" stroke-miterlimit="10"/>
<path d="M11.8452 11.4617C10.6401 10.6896 8.91402 10.1448 6.99996 10.1448C5.08585 10.1448 3.35973 10.6896 2.15466 11.4618" stroke="#84878F" stroke-miterlimit="10"/>
<path d="M7 0.410197V13.5898" stroke="#84878F" stroke-miterlimit="10"/>
</g>
</svg>
